<svg width="353" height="343" viewBox="0 0 353 343" fill="none" xmlns="http://www.w3.org/2000/svg">
<path d="M33.04 78.1997C17.72 119.01 30.95 174.1 54.62 217.2C115.62 329.1 264.06 265.83 261.5 215.01C264.98 166.53 221.38 152.13 206.59 124.95C123.77 -28.4703 45.35 43.7897 33.04 78.1997Z" fill="#F66435"/>
<path opacity="0.9" d="M33.04 78.1997C17.72 119.01 30.95 174.1 54.62 217.2C115.62 329.1 264.06 265.83 261.5 215.01C264.98 166.53 221.38 152.13 206.59 124.95C123.77 -28.4703 45.35 43.7897 33.04 78.1997Z" fill="white"/>
<path d="M76.03 219.96H15.1801V192.49L76.03 120.15H105.15V194.05H120.24V219.96H105.15V242.44H76.03V219.96ZM76.03 194.05V156.21L43.87 194.05H76.03Z" fill="#F66435"/>
<path d="M130.65 181.83C130.65 158.97 134.763 142.97 142.99 133.83C151.217 124.69 163.753 120.123 180.6 120.13C188.687 120.13 195.33 121.13 200.53 123.13C205.254 124.832 209.579 127.483 213.24 130.92C216.326 133.866 218.94 137.269 220.99 141.01C223.019 144.916 224.548 149.062 225.54 153.35C227.801 162.511 228.929 171.914 228.9 181.35C228.9 203.163 225.21 219.127 217.83 229.24C210.45 239.353 197.74 244.413 179.7 244.42C169.58 244.42 161.403 242.807 155.17 239.58C148.887 236.301 143.594 231.402 139.84 225.39C136.94 220.963 134.683 214.907 133.07 207.22C131.395 198.862 130.584 190.354 130.65 181.83ZM163.79 181.91C163.79 197.243 165.14 207.7 167.84 213.28C170.54 218.86 174.463 221.663 179.61 221.69C181.243 221.708 182.864 221.402 184.378 220.789C185.892 220.176 187.269 219.269 188.43 218.12C190.923 215.74 192.757 211.98 193.93 206.84C195.103 201.7 195.69 193.7 195.69 182.84C195.69 166.88 194.337 156.15 191.63 150.65C188.923 145.15 184.863 142.403 179.45 142.41C173.93 142.41 169.93 145.213 167.45 150.82C164.97 156.427 163.75 166.79 163.79 181.91Z" fill="#F66435"/>
<path d="M300.09 219.96H239.24V192.49L300.09 120.15H329.21V194.05H344.35V219.96H329.21V242.44H300.09V219.96ZM300.09 194.05V156.21L267.94 194.05H300.09Z" fill="#F66435"/>
<g opacity="0.3">
<path d="M129.35 77.9398C129.35 78.3101 129.24 78.6721 129.034 78.9798C128.828 79.2875 128.536 79.5272 128.193 79.6684C127.851 79.8097 127.474 79.8461 127.111 79.7732C126.748 79.7002 126.415 79.5211 126.154 79.2586C125.893 78.996 125.716 78.6619 125.645 78.2985C125.574 77.9351 125.612 77.5588 125.755 77.2173C125.898 76.8758 126.14 76.5844 126.448 76.3801C126.757 76.1759 127.12 76.0679 127.49 76.0699C127.735 76.0698 127.978 76.1183 128.204 76.2124C128.43 76.3065 128.636 76.4444 128.809 76.6182C128.982 76.7919 129.118 76.9982 129.211 77.225C129.304 77.4518 129.351 77.6947 129.35 77.9398Z" fill="#F66435"/>
<path d="M1.32 149.77C2.04902 149.77 2.64 149.179 2.64 148.45C2.64 147.721 2.04902 147.13 1.32 147.13C0.590984 147.13 0 147.721 0 148.45C0 149.179 0.590984 149.77 1.32 149.77Z" fill="#F66435"/>
<path d="M219.4 342.54C220.444 342.54 221.29 341.694 221.29 340.65C221.29 339.606 220.444 338.76 219.4 338.76C218.356 338.76 217.51 339.606 217.51 340.65C217.51 341.694 218.356 342.54 219.4 342.54Z" fill="#F66435"/>
<path d="M264.85 265.64C265.579 265.64 266.17 265.049 266.17 264.32C266.17 263.591 265.579 263 264.85 263C264.121 263 263.53 263.591 263.53 264.32C263.53 265.049 264.121 265.64 264.85 265.64Z" fill="#F66435"/>
<path d="M352.52 27.9401C352.52 28.2012 352.443 28.4564 352.298 28.6735C352.153 28.8905 351.946 29.0597 351.705 29.1596C351.464 29.2595 351.199 29.2857 350.942 29.2347C350.686 29.1838 350.451 29.0581 350.267 28.8735C350.082 28.6889 349.956 28.4537 349.905 28.1976C349.854 27.9416 349.881 27.6762 349.98 27.435C350.08 27.1938 350.25 26.9876 350.467 26.8426C350.684 26.6975 350.939 26.6201 351.2 26.6201C351.55 26.6201 351.886 26.7592 352.133 27.0067C352.381 27.2543 352.52 27.59 352.52 27.9401Z" fill="#F66435"/>
<path d="M101.1 1.32C101.1 1.58107 101.023 1.83628 100.878 2.05335C100.732 2.27043 100.526 2.43961 100.285 2.53952C100.044 2.63943 99.7785 2.66557 99.5224 2.61464C99.2664 2.56371 99.0312 2.43799 98.8466 2.25338C98.662 2.06877 98.5363 1.83358 98.4853 1.57752C98.4344 1.32147 98.4605 1.05606 98.5604 0.814857C98.6604 0.573659 98.8295 0.367501 99.0466 0.222458C99.2637 0.0774144 99.5189 0 99.78 0C100.129 0.00261642 100.463 0.142528 100.71 0.389511C100.957 0.636494 101.097 0.970723 101.1 1.32Z" fill="#F66435"/>
<path d="M206.05 70.5799C206.779 70.5799 207.37 69.989 207.37 69.2599C207.37 68.5309 206.779 67.9399 206.05 67.9399C205.321 67.9399 204.73 68.5309 204.73 69.2599C204.73 69.989 205.321 70.5799 206.05 70.5799Z" fill="#F66435"/>
</g>
<path d="M69.58 70.59C81.6806 70.59 91.49 60.7806 91.49 48.68C91.49 36.5795 81.6806 26.77 69.58 26.77C57.4795 26.77 47.67 36.5795 47.67 48.68C47.67 60.7806 57.4795 70.59 69.58 70.59Z" fill="#F66435"/>
<path opacity="0.7" d="M69.58 70.59C81.6806 70.59 91.49 60.7806 91.49 48.68C91.49 36.5795 81.6806 26.77 69.58 26.77C57.4795 26.77 47.67 36.5795 47.67 48.68C47.67 60.7806 57.4795 70.59 69.58 70.59Z" fill="white"/>
<path opacity="0.2" d="M62.03 32.15C59.0461 32.1409 56.0921 32.7432 53.35 33.92C49.98 37.6239 47.9798 42.37 47.6821 47.3687C47.3844 52.3675 48.8072 57.3174 51.7139 61.3951C54.6205 65.4728 58.8356 68.4323 63.6581 69.7814C68.4805 71.1304 73.6195 70.7876 78.22 68.81C81.0723 65.6666 82.9507 61.7627 83.6269 57.5724C84.3032 53.382 83.7483 49.0854 82.0296 45.2043C80.3109 41.3233 77.5024 38.0247 73.9451 35.7091C70.3877 33.3935 66.2346 32.1606 61.99 32.16L62.03 32.15Z" fill="#F66435"/>
<path opacity="0.2" d="M59.85 37.9399C59.85 38.3355 59.7327 38.7222 59.5129 39.0511C59.2931 39.38 58.9808 39.6363 58.6153 39.7877C58.2499 39.9391 57.8478 39.9787 57.4598 39.9015C57.0718 39.8243 56.7155 39.6339 56.4358 39.3541C56.1561 39.0744 55.9656 38.7181 55.8884 38.3301C55.8112 37.9422 55.8508 37.54 56.0022 37.1746C56.1536 36.8091 56.4099 36.4968 56.7388 36.277C57.0677 36.0572 57.4544 35.9399 57.85 35.9399C58.3804 35.9399 58.8891 36.1507 59.2642 36.5257C59.6393 36.9008 59.85 37.4095 59.85 37.9399Z" fill="#F66435"/>
<path opacity="0.2" d="M83.41 35.9399C83.41 36.3355 83.2927 36.7222 83.073 37.0511C82.8532 37.38 82.5408 37.6363 82.1754 37.7877C81.8099 37.9391 81.4078 37.9787 81.0198 37.9015C80.6319 37.8243 80.2755 37.6339 79.9958 37.3541C79.7161 37.0744 79.5256 36.7181 79.4485 36.3301C79.3713 35.9422 79.4109 35.54 79.5623 35.1746C79.7136 34.8091 79.97 34.4968 80.2989 34.277C80.6278 34.0572 81.0145 33.9399 81.41 33.9399C81.9405 33.9399 82.4492 34.1507 82.8242 34.5257C83.1993 34.9008 83.41 35.4095 83.41 35.9399Z" fill="#F66435"/>
<path opacity="0.2" d="M79.41 50.2199C79.41 50.8687 79.2176 51.5028 78.8572 52.0422C78.4968 52.5816 77.9845 53.002 77.3852 53.2503C76.7858 53.4985 76.1263 53.5635 75.4901 53.4369C74.8538 53.3104 74.2694 52.998 73.8107 52.5392C73.352 52.0805 73.0396 51.4961 72.913 50.8598C72.7864 50.2236 72.8514 49.5641 73.0997 48.9647C73.3479 48.3654 73.7683 47.8531 74.3077 47.4927C74.8471 47.1323 75.4813 46.9399 76.13 46.9399C76.9999 46.9399 77.8342 47.2855 78.4493 47.9006C79.0644 48.5157 79.41 49.35 79.41 50.2199Z" fill="#F66435"/>
<path opacity="0.2" d="M68.99 59.5699C68.99 60.4362 68.7331 61.283 68.2518 62.0033C67.7705 62.7236 67.0865 63.285 66.2861 63.6165C65.4858 63.948 64.6051 64.0348 63.7555 63.8658C62.9058 63.6968 62.1254 63.2796 61.5129 62.6671C60.9003 62.0545 60.4831 61.2741 60.3141 60.4244C60.1451 59.5748 60.2319 58.6941 60.5634 57.8938C60.8949 57.0934 61.4563 56.4094 62.1766 55.9281C62.8969 55.4468 63.7437 55.1899 64.61 55.1899C65.7716 55.1899 66.8857 55.6514 67.7071 56.4728C68.5285 57.2942 68.99 58.4083 68.99 59.5699Z" fill="#F66435"/>
<path d="M329.25 312.966C331.689 302.63 325.288 292.273 314.951 289.833C304.615 287.393 294.258 293.795 291.818 304.131C289.379 314.468 295.78 324.825 306.117 327.264C316.453 329.704 326.81 323.302 329.25 312.966Z" fill="#F66435"/>
<path opacity="0.3" d="M329.25 312.966C331.689 302.63 325.288 292.273 314.951 289.833C304.615 287.393 294.258 293.795 291.818 304.131C289.379 314.468 295.78 324.825 306.117 327.264C316.453 329.704 326.81 323.302 329.25 312.966Z" fill="white"/>
<path opacity="0.4" d="M322.68 293.66C318.417 292.374 313.84 292.607 309.73 294.321C305.62 296.034 302.233 299.122 300.146 303.056C298.06 306.99 297.405 311.526 298.292 315.889C299.179 320.253 301.553 324.173 305.01 326.98C306.803 327.525 308.666 327.801 310.54 327.8C314.51 327.799 318.382 326.57 321.626 324.28C324.869 321.991 327.324 318.754 328.654 315.013C329.984 311.273 330.124 307.212 329.055 303.389C327.985 299.566 325.758 296.167 322.68 293.66Z" fill="#F66435"/>
<path d="M292.18 314.32C271.65 323.98 286.96 331.43 315.89 321.03C342.68 311.4 352.89 299.26 328.89 303.03C330.18 308.08 296.63 321.15 292.18 314.32Z" fill="#F66435"/>
<path opacity="0.2" d="M322.45 120.15C295.56 138.32 260.75 162.32 251.14 219.96H249.09C258.44 162.96 291.98 138.39 318.88 120.15H322.45Z" fill="black"/>
<path d="M183.35 300.589C166.35 300.589 149.54 292.919 141.35 280.399C136.3 272.659 130.43 256.449 147.91 234.819L149.46 236.079C137.1 251.379 134.82 266.729 143.03 279.309C153.03 294.609 176.62 302.309 196.76 296.829C217.39 291.219 229.91 273.279 231.12 247.609C235.25 159.799 281.9 132.749 315.96 112.999C337.13 100.729 352.42 91.8695 349.06 73.1595C348.59 70.5695 347.56 68.7795 345.89 67.6795C341.54 64.8095 333.04 66.7995 323.2 69.0895C303.89 73.5895 277.45 79.7495 261.7 52.9595L263.43 51.9595C278.43 77.4895 303 71.7595 322.75 67.1595C333.04 64.7695 341.92 62.6995 346.99 66.0295C349.14 67.4395 350.46 69.6695 350.99 72.8295C354.6 92.9095 337.99 102.549 316.94 114.749C283.27 134.269 237.17 160.999 233.09 247.749C231.83 274.349 218.77 292.959 197.25 298.809C192.716 300.017 188.042 300.615 183.35 300.589Z" fill="#F66435"/>
<path opacity="0.2" d="M183.35 300.589C166.35 300.589 149.54 292.919 141.35 280.399C136.3 272.659 130.43 256.449 147.91 234.819L149.46 236.079C137.1 251.379 134.82 266.729 143.03 279.309C153.03 294.609 176.62 302.309 196.76 296.829C217.39 291.219 229.91 273.279 231.12 247.609C235.25 159.799 281.9 132.749 315.96 112.999C337.13 100.729 352.42 91.8695 349.06 73.1595C348.59 70.5695 347.56 68.7795 345.89 67.6795C341.54 64.8095 333.04 66.7995 323.2 69.0895C303.89 73.5895 277.45 79.7495 261.7 52.9595L263.43 51.9595C278.43 77.4895 303 71.7595 322.75 67.1595C333.04 64.7695 341.92 62.6995 346.99 66.0295C349.14 67.4395 350.46 69.6695 350.99 72.8295C354.6 92.9095 337.99 102.549 316.94 114.749C283.27 134.269 237.17 160.999 233.09 247.749C231.83 274.349 218.77 292.959 197.25 298.809C192.716 300.017 188.042 300.615 183.35 300.589Z" fill="white"/>
<path d="M241.11 29.3198C245.718 29.3464 250.295 30.0644 254.69 31.4498C254.69 31.4498 265.69 50.2198 266.99 54.5198C266.53 58.7598 259.38 65.7098 259.38 65.7098L241.11 29.3198Z" fill="#F66435"/>
<path opacity="0.3" d="M241.11 29.3198C245.718 29.3464 250.295 30.0644 254.69 31.4498C254.69 31.4498 265.69 50.2198 266.99 54.5198C266.53 58.7598 259.38 65.7098 259.38 65.7098L241.11 29.3198Z" fill="white"/>
<path d="M273.69 120.449C269.454 115.27 265.591 109.796 262.13 104.069C261.29 102.623 260.493 101.149 259.74 99.6495C259.31 98.7995 258.9 97.9495 258.5 97.0895C257.975 96.2526 257.568 95.3475 257.29 94.3995C256.09 81.7295 260.43 72.3995 256.29 62.2295L239.81 68.6695C239.81 68.6695 241.21 86.7895 244.41 97.6695C246.41 104.399 250.89 110.219 255.22 115.609C256.57 117.289 257.87 119.019 259.22 120.709C260.57 122.399 261.93 123.769 263.22 125.359C265.17 127.769 265.81 130.079 264.34 132.919L264.09 133.369C263.67 134.109 265.63 134.949 266.87 133.369C268.87 130.789 268.59 130.949 270.33 128.749C271.39 127.419 272.6 125.969 273.65 124.749C274.156 124.15 274.438 123.392 274.445 122.607C274.452 121.822 274.185 121.059 273.69 120.449Z" fill="#F66435"/>
<path opacity="0.7" d="M273.69 120.449C269.454 115.27 265.591 109.796 262.13 104.069C261.29 102.623 260.493 101.149 259.74 99.6495C259.31 98.7995 258.9 97.9495 258.5 97.0895C257.975 96.2526 257.568 95.3475 257.29 94.3995C256.09 81.7295 260.43 72.3995 256.29 62.2295L239.81 68.6695C239.81 68.6695 241.21 86.7895 244.41 97.6695C246.41 104.399 250.89 110.219 255.22 115.609C256.57 117.289 257.87 119.019 259.22 120.709C260.57 122.399 261.93 123.769 263.22 125.359C265.17 127.769 265.81 130.079 264.34 132.919L264.09 133.369C263.67 134.109 265.63 134.949 266.87 133.369C268.87 130.789 268.59 130.949 270.33 128.749C271.39 127.419 272.6 125.969 273.65 124.749C274.156 124.15 274.438 123.392 274.445 122.607C274.452 121.822 274.185 121.059 273.69 120.449Z" fill="white"/>
<path opacity="0.3" d="M269.66 115.24C267.045 118.043 264.142 120.564 261 122.76C261.43 123.24 261.85 123.76 262.28 124.22C265.426 122.094 268.283 119.57 270.78 116.71L269.66 115.24Z" fill="#F66435"/>
<path opacity="0.3" d="M273.69 120.45L273.57 120.31C272.8 121.192 272.353 122.31 272.3 123.48C272.236 124.282 272.366 125.088 272.68 125.83L273.63 124.7C274.126 124.106 274.404 123.359 274.414 122.585C274.425 121.811 274.17 121.057 273.69 120.45Z" fill="#F66435"/>
<path d="M237.19 41.3199C235.403 43.995 233.26 46.4139 230.82 48.5099C229.467 49.6762 227.984 50.6829 226.4 51.5099C225.568 51.9362 224.706 52.3005 223.82 52.5999L223.14 52.8199L222.92 52.8799L222.45 53.0099C222.161 53.0785 221.866 53.1253 221.57 53.1499C220.726 53.2144 219.878 53.1366 219.06 52.9199C218.029 52.6271 217.04 52.2001 216.12 51.6499C215.38 51.2171 214.662 50.7464 213.97 50.2399C212.72 49.3099 211.524 48.3082 210.39 47.2399C208.203 45.1673 206.195 42.9125 204.39 40.4999C204.042 40.0299 203.87 39.4532 203.902 38.8695C203.934 38.2858 204.169 37.7315 204.566 37.3025C204.963 36.8734 205.497 36.5964 206.077 36.5192C206.656 36.4421 207.244 36.5696 207.74 36.8799H207.82C210.18 38.3799 212.56 39.9599 214.88 41.3699C216.06 42.0599 217.2 42.7599 218.33 43.2999C218.846 43.57 219.377 43.8103 219.92 44.0199C220.258 44.1693 220.621 44.2573 220.99 44.2799C221.05 44.2799 220.99 44.2099 220.62 44.2199C220.503 44.2129 220.387 44.2129 220.27 44.2199L220.05 44.2699L220.38 44.0999C220.824 43.8608 221.255 43.5971 221.67 43.3099C222.565 42.679 223.401 41.9695 224.17 41.1899C225.917 39.359 227.553 37.4256 229.07 35.3999C229.901 34.4701 231.049 33.8845 232.29 33.7578C233.53 33.6311 234.774 33.9726 235.775 34.7151C236.777 35.4577 237.465 36.5478 237.705 37.7716C237.944 38.9953 237.718 40.2644 237.07 41.3299L237.19 41.3199Z" fill="#F66435"/>
<path opacity="0.7" d="M237.19 41.3199C235.403 43.995 233.26 46.4139 230.82 48.5099C229.467 49.6762 227.984 50.6829 226.4 51.5099C225.568 51.9362 224.706 52.3005 223.82 52.5999L223.14 52.8199L222.92 52.8799L222.45 53.0099C222.161 53.0785 221.866 53.1253 221.57 53.1499C220.726 53.2144 219.878 53.1366 219.06 52.9199C218.029 52.6271 217.04 52.2001 216.12 51.6499C215.38 51.2171 214.662 50.7464 213.97 50.2399C212.72 49.3099 211.524 48.3082 210.39 47.2399C208.203 45.1673 206.195 42.9125 204.39 40.4999C204.042 40.0299 203.87 39.4532 203.902 38.8695C203.934 38.2858 204.169 37.7315 204.566 37.3025C204.963 36.8734 205.497 36.5964 206.077 36.5192C206.656 36.4421 207.244 36.5696 207.74 36.8799H207.82C210.18 38.3799 212.56 39.9599 214.88 41.3699C216.06 42.0599 217.2 42.7599 218.33 43.2999C218.846 43.57 219.377 43.8103 219.92 44.0199C220.258 44.1693 220.621 44.2573 220.99 44.2799C221.05 44.2799 220.99 44.2099 220.62 44.2199C220.503 44.2129 220.387 44.2129 220.27 44.2199L220.05 44.2699L220.38 44.0999C220.824 43.8608 221.255 43.5971 221.67 43.3099C222.565 42.679 223.401 41.9695 224.17 41.1899C225.917 39.359 227.553 37.4256 229.07 35.3999C229.901 34.4701 231.049 33.8845 232.29 33.7578C233.53 33.6311 234.774 33.9726 235.775 34.7151C236.777 35.4577 237.465 36.5478 237.705 37.7716C237.944 38.9953 237.718 40.2644 237.07 41.3299L237.19 41.3199Z" fill="white"/>
<path d="M200.64 34.7399L201.81 36.7399C201.81 36.7399 202.7 39.3599 204.49 39.8399L209.35 38.2699L209.1 37.8599C208.48 36.9199 208.55 35.0899 208.76 33.5699C208.97 32.0499 208.19 31.9999 207.61 32.3799C207.199 32.8527 206.91 33.4193 206.77 34.0299C206.531 33.6997 206.267 33.3887 205.98 33.0999L204.5 31.6199C204.189 31.3164 203.776 31.1416 203.342 31.1304C202.908 31.1193 202.486 31.2727 202.16 31.5599L200.96 32.6299C200.675 32.8932 200.488 33.2455 200.43 33.6289C200.372 34.0123 200.446 34.404 200.64 34.7399Z" fill="#F66435"/>
<path opacity="0.7" d="M200.64 34.7399L201.81 36.7399C201.81 36.7399 202.7 39.3599 204.49 39.8399L209.35 38.2699L209.1 37.8599C208.48 36.9199 208.55 35.0899 208.76 33.5699C208.97 32.0499 208.19 31.9999 207.61 32.3799C207.199 32.8527 206.91 33.4193 206.77 34.0299C206.531 33.6997 206.267 33.3887 205.98 33.0999L204.5 31.6199C204.189 31.3164 203.776 31.1416 203.342 31.1304C202.908 31.1193 202.486 31.2727 202.16 31.5599L200.96 32.6299C200.675 32.8932 200.488 33.2455 200.43 33.6289C200.372 34.0123 200.446 34.404 200.64 34.7399Z" fill="white"/>
<path d="M246.02 27.5398C240.629 28.9686 235.466 31.1465 230.68 34.0098C229.933 34.4771 229.347 35.1614 229.001 35.971C228.654 36.7807 228.563 37.677 228.74 38.5398C230.67 47.9798 235.06 60.6198 239.8 68.6698L261.91 59.5198C262.06 55.6198 256.69 42.9998 251.22 30.7998C250.24 28.6098 248.35 26.9798 246.02 27.5398Z" fill="#F66435"/>
<path opacity="0.8" d="M246.02 27.5398C240.629 28.9686 235.466 31.1465 230.68 34.0098C229.933 34.4771 229.347 35.1614 229.001 35.971C228.654 36.7807 228.563 37.677 228.74 38.5398C230.67 47.9798 235.06 60.6198 239.8 68.6698L261.91 59.5198C262.06 55.6198 256.69 42.9998 251.22 30.7998C250.24 28.6098 248.35 26.9798 246.02 27.5398Z" fill="white"/>
<path opacity="0.3" d="M254.65 38.5296L250.26 37.0596C251.26 39.6296 254.79 42.8796 257.26 44.7896C256.46 42.7896 255.57 40.6896 254.65 38.5296Z" fill="#F66435"/>
<path d="M244.57 17.6397C242.74 14.1597 238.79 12.4097 234.05 12.7997C230.05 13.1397 226.51 17.2197 226.93 19.4197C227.35 21.6197 230.71 22.5597 231.35 23.3197L228.58 25.3197C228.252 25.5566 227.975 25.8574 227.766 26.204C227.557 26.5506 227.421 26.9359 227.365 27.3367C227.309 27.7375 227.334 28.1455 227.44 28.5361C227.546 28.9267 227.729 29.2919 227.98 29.6097C229.15 31.0897 230.69 32.6097 231.58 33.7297C239.24 33.5297 244.91 30.6097 246.96 27.7997C246.19 24.2397 246.35 21.0997 244.57 17.6397Z" fill="#F66435"/>
<path opacity="0.8" d="M244.57 17.6397C242.74 14.1597 238.79 12.4097 234.05 12.7997C230.05 13.1397 226.51 17.2197 226.93 19.4197C227.35 21.6197 230.71 22.5597 231.35 23.3197L228.58 25.3197C228.252 25.5566 227.975 25.8574 227.766 26.204C227.557 26.5506 227.421 26.9359 227.365 27.3367C227.309 27.7375 227.334 28.1455 227.44 28.5361C227.546 28.9267 227.729 29.2919 227.98 29.6097C229.15 31.0897 230.69 32.6097 231.58 33.7297C239.24 33.5297 244.91 30.6097 246.96 27.7997C246.19 24.2397 246.35 21.0997 244.57 17.6397Z" fill="white"/>
<path d="M240.81 19.7999C241.354 21.1946 241.472 22.7191 241.149 24.1808C240.827 25.6425 240.078 26.9758 238.998 28.0122C237.918 29.0486 236.555 29.7414 235.081 30.0033C233.607 30.2651 232.089 30.0841 230.718 29.4832C229.347 28.8822 228.185 27.8883 227.379 26.6271C226.573 25.3659 226.159 23.894 226.189 22.3974C226.219 20.9008 226.692 19.4468 227.548 18.2191C228.405 16.9914 229.606 16.0451 231 15.4999C232.871 14.771 234.955 14.8143 236.795 15.6205C238.634 16.4268 240.078 17.9299 240.81 19.7999Z" fill="#263238"/>
<path d="M305.74 109.92C305.63 106.63 305.48 106.92 305.39 104.15C305.33 102.45 305.32 100.56 305.31 98.9295C305.307 98.1555 305.036 97.4063 304.544 96.8087C304.052 96.211 303.369 95.8016 302.61 95.6495C301.29 95.3795 299.96 95.1295 298.61 94.8495C296.88 94.4795 295.17 94.0795 293.48 93.5895C292.16 93.2095 290.86 92.7895 289.57 92.3195C288.28 91.8495 286.83 91.3195 285.49 90.6995C283.91 90.0295 282.35 89.3095 280.81 88.5595C279.08 87.7395 277.37 86.8795 275.66 86.0095C269.08 75.1195 268.94 67.9395 261.88 59.5195L246.72 66.3795C246.72 66.3795 257.86 86.1395 265.44 94.5195C269.81 99.3395 276.66 101.52 282.77 103.1C287.18 104.23 291.65 105.1 296.12 105.93C297.86 106.25 299.75 106.37 301.25 107.41C302.36 108.26 303.121 109.487 303.39 110.86C303.457 111.14 303.517 111.42 303.57 111.7C303.76 112.54 305.81 111.9 305.74 109.92Z" fill="#F66435"/>
<path opacity="0.8" d="M305.74 109.92C305.63 106.63 305.48 106.92 305.39 104.15C305.33 102.45 305.32 100.56 305.31 98.9295C305.307 98.1555 305.036 97.4063 304.544 96.8087C304.052 96.211 303.369 95.8016 302.61 95.6495C301.29 95.3795 299.96 95.1295 298.61 94.8495C296.88 94.4795 295.17 94.0795 293.48 93.5895C292.16 93.2095 290.86 92.7895 289.57 92.3195C288.28 91.8495 286.83 91.3195 285.49 90.6995C283.91 90.0295 282.35 89.3095 280.81 88.5595C279.08 87.7395 277.37 86.8795 275.66 86.0095C269.08 75.1195 268.94 67.9395 261.88 59.5195L246.72 66.3795C246.72 66.3795 257.86 86.1395 265.44 94.5195C269.81 99.3395 276.66 101.52 282.77 103.1C287.18 104.23 291.65 105.1 296.12 105.93C297.86 106.25 299.75 106.37 301.25 107.41C302.36 108.26 303.121 109.487 303.39 110.86C303.457 111.14 303.517 111.42 303.57 111.7C303.76 112.54 305.81 111.9 305.74 109.92Z" fill="white"/>
<path opacity="0.3" d="M298.05 94.7196C297.45 94.5896 296.85 94.4596 296.24 94.3096C296.29 97.7696 294.67 103.73 294.08 105.54L295.98 105.9C297.225 102.297 297.923 98.5288 298.05 94.7196Z" fill="#F66435"/>
<path opacity="0.3" d="M305.35 98.9295C305.347 98.1568 305.078 97.4088 304.588 96.8113C304.098 96.2139 303.417 95.8035 302.66 95.6495L301.66 95.4595C301.821 96.5963 302.402 97.6313 303.29 98.3595C303.861 98.8872 304.545 99.2772 305.29 99.4995C305.35 99.3195 305.35 99.1195 305.35 98.9295Z" fill="#F66435"/>
<path d="M239.4 19.8597C239.8 21.3797 238.1 22.9697 236.75 21.6597C235.49 20.3087 234.111 19.0737 232.63 17.9697C231.24 17.0997 233.09 15.5797 235.28 16.1697C236.214 16.4044 237.078 16.863 237.796 17.5059C238.513 18.1487 239.064 18.9566 239.4 19.8597Z" fill="white"/>
<path d="M239.51 68.1798C238.81 68.4398 240.09 69.6399 240.09 69.6399C240.09 69.6399 254.09 64.8498 262.59 59.9198C262.611 59.6214 262.56 59.3223 262.441 59.0475C262.323 58.7727 262.141 58.5301 261.91 58.3398C254.635 62.0404 247.157 65.3257 239.51 68.1798Z" fill="#F66435"/>
<path opacity="0.5" d="M239.51 68.1798C238.81 68.4398 240.09 69.6399 240.09 69.6399C240.09 69.6399 254.09 64.8498 262.59 59.9198C262.611 59.6214 262.56 59.3223 262.441 59.0475C262.323 58.7727 262.141 58.5301 261.91 58.3398C254.635 62.0404 247.157 65.3257 239.51 68.1798Z" fill="white"/>
<path d="M249.81 26.8797C252.57 28.2797 255.16 29.7497 257.81 31.3797C259.1 32.1997 260.38 33.0297 261.65 33.9297C262.92 34.8297 264.18 35.7497 265.45 36.7897L265.92 37.1797L266.51 37.7197C266.862 38.0343 267.195 38.3681 267.51 38.7197C267.83 39.0697 268.1 39.4097 268.36 39.7197C268.62 40.0297 268.9 40.3997 269.13 40.7197C270.062 42.0053 270.923 43.3406 271.71 44.7197C273.26 47.3941 274.597 50.186 275.71 53.0697C275.916 53.6145 275.926 54.2138 275.74 54.7656C275.554 55.3174 275.182 55.7877 274.688 56.0965C274.195 56.4052 273.609 56.5334 273.032 56.4593C272.454 56.3851 271.92 56.1132 271.52 55.6897L271.47 55.6297C269.47 53.4997 267.54 51.2597 265.6 49.1697C263.66 47.0797 261.69 44.9597 260.06 44.0297C257.79 42.6197 255.26 41.2097 252.75 39.8297L245.19 35.6297C244.018 35.0091 243.14 33.9482 242.75 32.6805C242.36 31.4127 242.489 30.042 243.11 28.8697C243.731 27.6975 244.791 26.8197 246.059 26.4297C247.327 26.0396 248.698 26.1691 249.87 26.7897L249.81 26.8797Z" fill="#F66435"/>
<path opacity="0.8" d="M249.81 26.8797C252.57 28.2797 255.16 29.7497 257.81 31.3797C259.1 32.1997 260.38 33.0297 261.65 33.9297C262.92 34.8297 264.18 35.7497 265.45 36.7897L265.92 37.1797L266.51 37.7197C266.862 38.0343 267.195 38.3681 267.51 38.7197C267.83 39.0697 268.1 39.4097 268.36 39.7197C268.62 40.0297 268.9 40.3997 269.13 40.7197C270.062 42.0053 270.923 43.3406 271.71 44.7197C273.26 47.3941 274.597 50.186 275.71 53.0697C275.916 53.6145 275.926 54.2138 275.74 54.7656C275.554 55.3174 275.182 55.7877 274.688 56.0965C274.195 56.4052 273.609 56.5334 273.032 56.4593C272.454 56.3851 271.92 56.1132 271.52 55.6897L271.47 55.6297C269.47 53.4997 267.54 51.2597 265.6 49.1697C263.66 47.0797 261.69 44.9597 260.06 44.0297C257.79 42.6197 255.26 41.2097 252.75 39.8297L245.19 35.6297C244.018 35.0091 243.14 33.9482 242.75 32.6805C242.36 31.4127 242.489 30.042 243.11 28.8697C243.731 27.6975 244.791 26.8197 246.059 26.4297C247.327 26.0396 248.698 26.1691 249.87 26.7897L249.81 26.8797Z" fill="white"/>
<path d="M278.08 58.0597L277.23 55.9297C277.23 55.9297 276.76 53.2097 275.07 52.4497L270.07 53.2397L270.24 53.6797C270.7 54.6797 270.35 56.5097 269.9 57.9697C269.45 59.4297 270.21 59.6197 270.85 59.3297C271.21 59.1697 271.56 58.5197 271.94 57.8297C272.126 58.1773 272.337 58.5115 272.57 58.8297L273.8 60.5197C274.057 60.8699 274.437 61.1099 274.863 61.1916C275.29 61.2732 275.732 61.1903 276.1 60.9597L277.46 60.0897C277.778 59.8719 278.013 59.5523 278.126 59.1834C278.238 58.8145 278.222 58.4182 278.08 58.0597Z" fill="#F66435"/>
<path opacity="0.8" d="M278.08 58.0597L277.23 55.9297C277.23 55.9297 276.76 53.2097 275.07 52.4497L270.07 53.2397L270.24 53.6797C270.7 54.6797 270.35 56.5097 269.9 57.9697C269.45 59.4297 270.21 59.6197 270.85 59.3297C271.21 59.1697 271.56 58.5197 271.94 57.8297C272.126 58.1773 272.337 58.5115 272.57 58.8297L273.8 60.5197C274.057 60.8699 274.437 61.1099 274.863 61.1916C275.29 61.2732 275.732 61.1903 276.1 60.9597L277.46 60.0897C277.778 59.8719 278.013 59.5523 278.126 59.1834C278.238 58.8145 278.222 58.4182 278.08 58.0597Z" fill="white"/>
<path opacity="0.3" d="M245.59 38.3799L244.37 38.4799L236.88 56.5599C237.289 56.5893 237.701 56.5556 238.1 56.4599C238.1 56.4599 247.86 52.8199 250.81 51.4599C248.83 47.3699 245.59 38.3799 245.59 38.3799Z" fill="#F66435"/>
<path d="M231.92 43.1195C232.83 47.8457 234.52 52.3876 236.92 56.5595C240.58 55.2995 246.68 52.9195 249.64 51.5595C247.65 47.2944 245.885 42.9285 244.35 38.4795C241.22 38.6895 234.35 41.3195 231.92 43.1195Z" fill="white"/>
<path opacity="0.3" d="M239.35 47.0299C239.204 47.5189 238.916 47.9536 238.523 48.2789C238.129 48.6043 237.648 48.8056 237.141 48.8576C236.633 48.9095 236.121 48.8096 235.67 48.5706C235.219 48.3317 234.849 47.9643 234.607 47.515C234.365 47.0656 234.261 46.5546 234.31 46.0465C234.358 45.5384 234.556 45.056 234.879 44.6605C235.201 44.2649 235.634 43.9739 236.122 43.8243C236.61 43.6747 237.131 43.6731 237.62 43.8199C238.275 44.0165 238.825 44.465 239.149 45.0669C239.474 45.6688 239.546 46.3748 239.35 47.0299Z" fill="#F66435"/>
<path opacity="0.6" d="M241.26 43.5897C241.221 43.7566 241.132 43.9078 241.006 44.0235C240.879 44.1392 240.721 44.214 240.551 44.238C240.382 44.262 240.208 44.2342 240.055 44.1581C239.901 44.082 239.774 43.9613 239.691 43.8117C239.607 43.6621 239.57 43.4908 239.586 43.32C239.601 43.1493 239.668 42.9872 239.777 42.8551C239.886 42.7229 240.033 42.6269 240.197 42.5795C240.362 42.5321 240.537 42.5357 240.7 42.5897C240.903 42.6544 241.073 42.7937 241.177 42.9793C241.281 43.1649 241.311 43.383 241.26 43.5897Z" fill="#F66435"/>
<path opacity="0.6" d="M243.5 42.7196C243.477 42.8356 243.429 42.9455 243.361 43.0421C243.292 43.1387 243.205 43.22 243.103 43.2807C243.001 43.3414 242.888 43.3802 242.771 43.3947C242.653 43.4092 242.534 43.3989 242.421 43.3647C242.308 43.3304 242.203 43.2728 242.113 43.1957C242.023 43.1186 241.95 43.0235 241.9 42.9167C241.849 42.8098 241.821 42.6935 241.817 42.5752C241.814 42.4569 241.835 42.3392 241.88 42.2296C241.912 42.1238 241.965 42.0254 242.035 41.9399C242.105 41.8544 242.191 41.7837 242.289 41.7316C242.386 41.6796 242.493 41.6474 242.603 41.6367C242.713 41.6261 242.824 41.6373 242.93 41.6696C243.144 41.7345 243.324 41.8811 243.431 42.0776C243.537 42.2741 243.562 42.5048 243.5 42.7196Z" fill="#F66435"/>
<path opacity="0.5" d="M246.64 50.5099L237.39 54.1599L236.84 52.3399L246.08 48.6899L246.64 50.5099Z" fill="#F66435"/>
<path opacity="0.2" d="M195.61 189.49C195.589 195.313 195.026 201.121 193.93 206.84C192.75 211.98 190.917 215.74 188.43 218.12C187.272 219.27 185.896 220.177 184.384 220.79C182.871 221.403 181.252 221.709 179.62 221.69C174.48 221.69 170.557 218.886 167.85 213.28C167.374 212.273 166.97 211.234 166.64 210.17C160.924 215.079 155.601 220.429 150.72 226.17L145.41 232.43C148.268 235.326 151.565 237.753 155.18 239.62C161.407 242.84 169.58 244.453 179.7 244.46C181.48 244.46 183.2 244.41 184.87 244.31C190.993 235.251 196.059 225.521 199.97 215.31L214.82 176.59L195.61 189.49Z" fill="black"/>
<path d="M61.74 242.32L79.24 259.82L128.24 213.65C111.35 207.2 78.51 225.51 61.74 242.32Z" fill="#263238"/>
<path d="M122.77 303.32C117.18 297.72 105.27 285.82 105.27 285.82L151.44 236.82C157.85 253.67 139.54 286.54 122.77 303.32Z" fill="#263238"/>
<path d="M189.75 193.02L208.84 156.21L172.03 175.32C160.206 181.452 149.289 189.192 139.59 198.32L76.84 257.39L107.67 288.22L166.74 225.47C175.872 215.768 183.616 204.848 189.75 193.02Z" fill="#F66435"/>
<path opacity="0.6" d="M189.75 193.02L208.84 156.21L172.03 175.32C160.206 181.452 149.289 189.192 139.59 198.32L76.84 257.39L107.67 288.22L166.74 225.47C175.872 215.768 183.616 204.848 189.75 193.02Z" fill="white"/>
<path d="M150.55 227.4C157.674 227.4 163.45 221.625 163.45 214.5C163.45 207.376 157.674 201.6 150.55 201.6C143.426 201.6 137.65 207.376 137.65 214.5C137.65 221.625 143.426 227.4 150.55 227.4Z" fill="white"/>
<path d="M150.55 222.79C155.128 222.79 158.84 219.078 158.84 214.5C158.84 209.921 155.128 206.21 150.55 206.21C145.972 206.21 142.26 209.921 142.26 214.5C142.26 219.078 145.972 222.79 150.55 222.79Z" fill="#F66435"/>
<path opacity="0.3" d="M118.1 277.14L87.91 246.95L112.63 223.69L141.36 252.43L118.1 277.14Z" fill="#F66435"/>
<path d="M68.57 269.94C45.97 271.77 38.48 286.24 35.92 305.47C34.62 315.28 34.04 325.21 25.81 330.95C25.3149 331.286 24.9421 331.774 24.7475 332.34C24.5529 332.907 24.5469 333.52 24.7305 334.09C24.914 334.66 25.2772 335.155 25.7657 335.501C26.2541 335.847 26.8416 336.026 27.44 336.01C57.78 335.06 71.93 320.21 73.71 314.01C73.2428 317.251 72.4074 320.428 71.22 323.48C71.0017 324.018 70.959 324.612 71.0979 325.176C71.2368 325.741 71.5502 326.247 71.9934 326.622C72.4367 326.998 72.9872 327.224 73.5666 327.269C74.1459 327.313 74.7246 327.174 75.22 326.87C83.73 321.54 94.41 311.72 95.12 295.79C88.86 286.92 68.57 269.94 68.57 269.94Z" fill="#F66435"/>
<path opacity="0.2" d="M68.57 269.94C45.97 271.77 38.48 286.24 35.92 305.47C34.62 315.28 34.04 325.21 25.81 330.95C25.3149 331.286 24.9421 331.774 24.7475 332.34C24.5529 332.907 24.5469 333.52 24.7305 334.09C24.914 334.66 25.2772 335.155 25.7657 335.501C26.2541 335.847 26.8416 336.026 27.44 336.01C57.78 335.06 71.93 320.21 73.71 314.01C73.2428 317.251 72.4074 320.428 71.22 323.48C71.0017 324.018 70.959 324.612 71.0979 325.176C71.2368 325.741 71.5502 326.247 71.9934 326.622C72.4367 326.998 72.9872 327.224 73.5666 327.269C74.1459 327.313 74.7246 327.174 75.22 326.87C83.73 321.54 94.41 311.72 95.12 295.79C88.86 286.92 68.57 269.94 68.57 269.94Z" fill="white"/>
<path d="M98.6301 302.62L62.4301 266.42L81.7101 262.25L102.8 283.34L98.6301 302.62Z" fill="#F66435"/>
</svg>
