<svg width="460" height="585" viewBox="0 0 460 585" fill="none" xmlns="http://www.w3.org/2000/svg">
<g filter="url(#filter0_d_695_1393)">
<g clip-path="url(#clip0_695_1393)">
<rect x="24" y="24" width="412" height="537" rx="50" fill="#0D0D0D"/>
<circle cx="356" cy="66" r="5" fill="white" fill-opacity="0.08"/>
<circle cx="376" cy="66" r="10" fill="white" fill-opacity="0.08"/>
<g clip-path="url(#clip1_695_1393)">
<path d="M75.2489 142.457C74.3724 143.508 73.9292 144.854 74.0092 146.221V205.591C73.9337 206.958 74.3764 208.302 75.2489 209.356L75.4518 209.558L108.698 176.289V175.5L75.4518 142.254L75.2489 142.457Z" fill="url(#paint0_linear_695_1393)"/>
<path d="M119.788 187.38L108.698 176.29V175.501L119.788 164.434L120.036 164.569L133.177 172.03C136.941 174.149 136.941 177.643 133.177 179.784L120.036 187.245L119.788 187.38Z" fill="url(#paint1_linear_695_1393)"/>
<path d="M120.036 187.244L108.766 175.974L75.2489 209.356C76.0215 209.991 76.9833 210.351 77.9831 210.38C78.9828 210.408 79.9636 210.104 80.7712 209.514L119.968 187.244" fill="url(#paint2_linear_695_1393)"/>
<path d="M120.036 164.569L80.7712 142.277C79.9723 141.663 78.9849 141.345 77.9778 141.378C76.9706 141.411 76.006 141.792 75.2489 142.457L108.698 175.907L120.036 164.569Z" fill="url(#paint3_linear_695_1393)"/>
<path opacity="0.1" d="M119.788 186.996L80.7712 209.13C79.9929 209.71 79.0483 210.024 78.0777 210.024C77.1071 210.024 76.1624 209.71 75.3841 209.13L75.1813 209.333L75.3841 209.536C76.1624 210.116 77.1071 210.429 78.0777 210.429C79.0483 210.429 79.9929 210.116 80.7712 209.536L119.968 187.267L119.788 186.996Z" fill="black"/>
<path opacity="0.07" d="M75.249 208.995C74.375 207.933 73.9325 206.582 74.0093 205.208V205.592C73.9337 206.958 74.3765 208.302 75.249 209.356L75.4519 209.153L75.249 208.995Z" fill="black"/>
<path opacity="0.07" d="M133.177 179.378L119.788 186.996L120.036 187.244L133.177 179.693C133.948 179.354 134.615 178.817 135.11 178.136C135.605 177.455 135.91 176.654 135.994 175.816C135.84 176.591 135.505 177.318 135.015 177.937C134.525 178.556 133.895 179.05 133.177 179.378Z" fill="black"/>
<path opacity="0.3" d="M80.7712 142.682L133.177 172.413C133.888 172.732 134.514 173.215 135.003 173.822C135.493 174.43 135.832 175.143 135.994 175.906C135.914 175.067 135.611 174.265 135.115 173.583C134.62 172.901 133.95 172.364 133.177 172.029L80.7712 142.277C77.0746 140.158 74.0092 141.916 74.0092 146.221V146.604C74.0092 142.322 77.0746 140.541 80.7712 142.682Z" fill="white"/>
</g>
<path d="M155.409 154.5V142.864H159.341C160.25 142.864 160.996 143.019 161.58 143.33C162.163 143.636 162.595 144.059 162.875 144.597C163.155 145.134 163.295 145.746 163.295 146.432C163.295 147.117 163.155 147.725 162.875 148.256C162.595 148.786 162.165 149.203 161.585 149.506C161.006 149.805 160.265 149.955 159.364 149.955H156.182V148.682H159.318C159.939 148.682 160.439 148.591 160.818 148.409C161.201 148.227 161.477 147.97 161.648 147.636C161.822 147.299 161.909 146.898 161.909 146.432C161.909 145.966 161.822 145.559 161.648 145.21C161.473 144.862 161.195 144.593 160.812 144.403C160.43 144.21 159.924 144.114 159.295 144.114H156.818V154.5H155.409ZM160.886 149.273L163.75 154.5H162.114L159.295 149.273H160.886ZM165.643 154.5V142.864H172.666V144.114H167.053V148.045H172.303V149.295H167.053V153.25H172.757V154.5H165.643ZM175.683 142.864L179.138 152.659H179.274L182.729 142.864H184.206L179.933 154.5H178.479L174.206 142.864H175.683ZM187.428 142.864V154.5H186.018V142.864H187.428ZM190.253 154.5V142.864H197.276V144.114H191.662V148.045H196.912V149.295H191.662V153.25H197.366V154.5H190.253ZM201.929 154.5L198.747 142.864H200.179L202.611 152.341H202.724L205.202 142.864H206.793L209.27 152.341H209.384L211.815 142.864H213.247L210.065 154.5H208.611L206.043 145.227H205.952L203.384 154.5H201.929ZM227.139 142.864H228.548V150.568C228.548 151.364 228.361 152.074 227.986 152.699C227.615 153.32 227.09 153.811 226.412 154.17C225.734 154.527 224.938 154.705 224.026 154.705C223.113 154.705 222.317 154.527 221.639 154.17C220.961 153.811 220.435 153.32 220.06 152.699C219.688 152.074 219.503 151.364 219.503 150.568V142.864H220.912V150.455C220.912 151.023 221.037 151.528 221.287 151.972C221.537 152.411 221.893 152.758 222.355 153.011C222.821 153.261 223.378 153.386 224.026 153.386C224.673 153.386 225.23 153.261 225.696 153.011C226.162 152.758 226.518 152.411 226.764 151.972C227.014 151.528 227.139 151.023 227.139 150.455V142.864ZM237.726 145.773C237.658 145.197 237.381 144.75 236.896 144.432C236.411 144.114 235.817 143.955 235.112 143.955C234.597 143.955 234.146 144.038 233.76 144.205C233.377 144.371 233.078 144.6 232.862 144.892C232.65 145.184 232.544 145.515 232.544 145.886C232.544 146.197 232.618 146.464 232.766 146.688C232.917 146.907 233.11 147.091 233.345 147.239C233.58 147.383 233.826 147.502 234.084 147.597C234.341 147.687 234.578 147.761 234.794 147.818L235.976 148.136C236.279 148.216 236.616 148.326 236.987 148.466C237.362 148.606 237.72 148.797 238.061 149.04C238.406 149.278 238.69 149.585 238.913 149.96C239.137 150.335 239.249 150.795 239.249 151.341C239.249 151.97 239.084 152.538 238.754 153.045C238.429 153.553 237.951 153.956 237.322 154.256C236.697 154.555 235.938 154.705 235.044 154.705C234.211 154.705 233.489 154.57 232.879 154.301C232.273 154.032 231.796 153.657 231.447 153.176C231.103 152.695 230.908 152.136 230.862 151.5H232.317C232.355 151.939 232.502 152.303 232.76 152.591C233.021 152.875 233.351 153.087 233.749 153.227C234.15 153.364 234.582 153.432 235.044 153.432C235.582 153.432 236.065 153.345 236.493 153.17C236.921 152.992 237.26 152.746 237.51 152.432C237.76 152.114 237.885 151.742 237.885 151.318C237.885 150.932 237.777 150.617 237.561 150.375C237.345 150.133 237.061 149.936 236.709 149.784C236.357 149.633 235.976 149.5 235.567 149.386L234.135 148.977C233.226 148.716 232.506 148.343 231.976 147.858C231.446 147.373 231.18 146.739 231.18 145.955C231.18 145.303 231.357 144.735 231.709 144.25C232.065 143.761 232.542 143.383 233.141 143.114C233.743 142.841 234.415 142.705 235.158 142.705C235.908 142.705 236.574 142.839 237.158 143.108C237.741 143.373 238.203 143.737 238.544 144.199C238.889 144.661 239.071 145.186 239.089 145.773H237.726ZM255.884 148.682C255.884 149.909 255.662 150.97 255.219 151.864C254.776 152.758 254.168 153.447 253.395 153.932C252.622 154.417 251.74 154.659 250.747 154.659C249.755 154.659 248.872 154.417 248.099 153.932C247.327 153.447 246.719 152.758 246.276 151.864C245.832 150.97 245.611 149.909 245.611 148.682C245.611 147.455 245.832 146.394 246.276 145.5C246.719 144.606 247.327 143.917 248.099 143.432C248.872 142.947 249.755 142.705 250.747 142.705C251.74 142.705 252.622 142.947 253.395 143.432C254.168 143.917 254.776 144.606 255.219 145.5C255.662 146.394 255.884 147.455 255.884 148.682ZM254.52 148.682C254.52 147.674 254.351 146.824 254.014 146.131C253.681 145.438 253.228 144.913 252.656 144.557C252.088 144.201 251.452 144.023 250.747 144.023C250.043 144.023 249.404 144.201 248.832 144.557C248.264 144.913 247.812 145.438 247.474 146.131C247.141 146.824 246.974 147.674 246.974 148.682C246.974 149.689 247.141 150.54 247.474 151.233C247.812 151.926 248.264 152.451 248.832 152.807C249.404 153.163 250.043 153.341 250.747 153.341C251.452 153.341 252.088 153.163 252.656 152.807C253.228 152.451 253.681 151.926 254.014 151.233C254.351 150.54 254.52 149.689 254.52 148.682ZM267.48 142.864V154.5H266.116L259.776 145.364H259.662V154.5H258.253V142.864H259.616L265.98 152.023H266.094V142.864H267.48Z" fill="white"/>
<path d="M175.818 183.812C175.619 183.121 175.34 182.51 174.98 181.98C174.62 181.44 174.18 180.986 173.659 180.616C173.148 180.238 172.561 179.949 171.898 179.75C171.244 179.551 170.52 179.452 169.724 179.452C168.238 179.452 166.931 179.821 165.804 180.56C164.687 181.298 163.815 182.373 163.19 183.784C162.565 185.186 162.253 186.9 162.253 188.926C162.253 190.953 162.561 192.676 163.176 194.097C163.792 195.517 164.663 196.601 165.79 197.349C166.917 198.088 168.247 198.457 169.781 198.457C171.173 198.457 172.362 198.211 173.347 197.719C174.341 197.217 175.098 196.511 175.619 195.602C176.15 194.693 176.415 193.618 176.415 192.378L177.665 192.562H170.165V187.932H182.338V191.597C182.338 194.153 181.798 196.35 180.719 198.188C179.639 200.015 178.152 201.426 176.259 202.42C174.365 203.405 172.196 203.898 169.753 203.898C167.026 203.898 164.63 203.296 162.565 202.094C160.501 200.882 158.891 199.163 157.736 196.938C156.59 194.703 156.017 192.051 156.017 188.983C156.017 186.625 156.358 184.523 157.04 182.676C157.731 180.82 158.697 179.248 159.938 177.96C161.178 176.672 162.622 175.692 164.27 175.02C165.918 174.348 167.703 174.011 169.625 174.011C171.273 174.011 172.807 174.253 174.227 174.736C175.648 175.209 176.907 175.882 178.006 176.753C179.114 177.624 180.018 178.661 180.719 179.864C181.42 181.057 181.869 182.373 182.068 183.812H175.818ZM196.702 203.926C194.496 203.926 192.588 203.457 190.978 202.52C189.378 201.573 188.142 200.257 187.271 198.571C186.399 196.876 185.964 194.911 185.964 192.676C185.964 190.422 186.399 188.453 187.271 186.767C188.142 185.072 189.378 183.756 190.978 182.818C192.588 181.871 194.496 181.398 196.702 181.398C198.909 181.398 200.812 181.871 202.413 182.818C204.022 183.756 205.263 185.072 206.134 186.767C207.005 188.453 207.441 190.422 207.441 192.676C207.441 194.911 207.005 196.876 206.134 198.571C205.263 200.257 204.022 201.573 202.413 202.52C200.812 203.457 198.909 203.926 196.702 203.926ZM196.731 199.239C197.735 199.239 198.573 198.955 199.245 198.386C199.917 197.809 200.424 197.023 200.765 196.028C201.115 195.034 201.29 193.902 201.29 192.634C201.29 191.365 201.115 190.233 200.765 189.239C200.424 188.244 199.917 187.458 199.245 186.881C198.573 186.303 197.735 186.014 196.731 186.014C195.718 186.014 194.865 186.303 194.174 186.881C193.492 187.458 192.976 188.244 192.626 189.239C192.285 190.233 192.114 191.365 192.114 192.634C192.114 193.902 192.285 195.034 192.626 196.028C192.976 197.023 193.492 197.809 194.174 198.386C194.865 198.955 195.718 199.239 196.731 199.239ZM221.234 203.926C219.027 203.926 217.119 203.457 215.509 202.52C213.909 201.573 212.673 200.257 211.802 198.571C210.931 196.876 210.495 194.911 210.495 192.676C210.495 190.422 210.931 188.453 211.802 186.767C212.673 185.072 213.909 183.756 215.509 182.818C217.119 181.871 219.027 181.398 221.234 181.398C223.44 181.398 225.344 181.871 226.944 182.818C228.554 183.756 229.794 185.072 230.665 186.767C231.537 188.453 231.972 190.422 231.972 192.676C231.972 194.911 231.537 196.876 230.665 198.571C229.794 200.257 228.554 201.573 226.944 202.52C225.344 203.457 223.44 203.926 221.234 203.926ZM221.262 199.239C222.266 199.239 223.104 198.955 223.776 198.386C224.449 197.809 224.955 197.023 225.296 196.028C225.647 195.034 225.822 193.902 225.822 192.634C225.822 191.365 225.647 190.233 225.296 189.239C224.955 188.244 224.449 187.458 223.776 186.881C223.104 186.303 222.266 186.014 221.262 186.014C220.249 186.014 219.397 186.303 218.705 186.881C218.023 187.458 217.507 188.244 217.157 189.239C216.816 190.233 216.646 191.365 216.646 192.634C216.646 193.902 216.816 195.034 217.157 196.028C217.507 197.023 218.023 197.809 218.705 198.386C219.397 198.955 220.249 199.239 221.262 199.239ZM245.737 212.136C243.776 212.136 242.095 211.866 240.694 211.327C239.302 210.796 238.194 210.072 237.37 209.153C236.546 208.235 236.011 207.203 235.765 206.057L241.362 205.304C241.532 205.74 241.802 206.147 242.171 206.526C242.54 206.904 243.028 207.207 243.634 207.435C244.25 207.671 244.998 207.79 245.879 207.79C247.195 207.79 248.279 207.468 249.131 206.824C249.993 206.189 250.424 205.124 250.424 203.628V199.636H250.168C249.903 200.242 249.505 200.815 248.975 201.355C248.445 201.895 247.763 202.335 246.93 202.676C246.096 203.017 245.102 203.188 243.947 203.188C242.308 203.188 240.817 202.809 239.472 202.051C238.137 201.284 237.072 200.115 236.276 198.543C235.49 196.961 235.097 194.963 235.097 192.548C235.097 190.077 235.5 188.012 236.305 186.355C237.11 184.698 238.18 183.457 239.515 182.634C240.86 181.81 242.332 181.398 243.933 181.398C245.154 181.398 246.177 181.606 247.001 182.023C247.825 182.43 248.487 182.941 248.989 183.557C249.501 184.163 249.894 184.759 250.168 185.347H250.396V181.682H256.404V203.713C256.404 205.569 255.95 207.122 255.04 208.372C254.131 209.622 252.872 210.56 251.262 211.185C249.662 211.819 247.82 212.136 245.737 212.136ZM245.864 198.642C246.84 198.642 247.664 198.401 248.336 197.918C249.018 197.425 249.539 196.724 249.898 195.815C250.268 194.897 250.452 193.798 250.452 192.52C250.452 191.241 250.272 190.134 249.913 189.196C249.553 188.249 249.032 187.515 248.35 186.994C247.668 186.473 246.84 186.213 245.864 186.213C244.87 186.213 244.032 186.483 243.35 187.023C242.668 187.553 242.152 188.292 241.802 189.239C241.451 190.186 241.276 191.279 241.276 192.52C241.276 193.779 241.451 194.868 241.802 195.787C242.162 196.696 242.678 197.402 243.35 197.903C244.032 198.396 244.87 198.642 245.864 198.642ZM267.271 174.409V203.5H261.219V174.409H267.271ZM282.061 203.926C279.817 203.926 277.885 203.472 276.266 202.562C274.656 201.644 273.415 200.347 272.544 198.67C271.673 196.985 271.237 194.991 271.237 192.69C271.237 190.446 271.673 188.476 272.544 186.781C273.415 185.086 274.642 183.765 276.223 182.818C277.814 181.871 279.679 181.398 281.82 181.398C283.259 181.398 284.599 181.63 285.839 182.094C287.089 182.548 288.179 183.235 289.107 184.153C290.044 185.072 290.773 186.227 291.294 187.619C291.815 189.002 292.075 190.621 292.075 192.477V194.139H273.652V190.389H286.379C286.379 189.518 286.19 188.746 285.811 188.074C285.432 187.402 284.907 186.876 284.234 186.497C283.571 186.109 282.8 185.915 281.919 185.915C281 185.915 280.186 186.128 279.476 186.554C278.775 186.971 278.226 187.534 277.828 188.244C277.43 188.945 277.227 189.726 277.217 190.588V194.153C277.217 195.233 277.416 196.166 277.814 196.952C278.221 197.738 278.794 198.344 279.533 198.77C280.271 199.196 281.147 199.409 282.161 199.409C282.833 199.409 283.448 199.314 284.007 199.125C284.566 198.936 285.044 198.652 285.442 198.273C285.839 197.894 286.143 197.43 286.351 196.881L291.947 197.25C291.663 198.595 291.081 199.769 290.2 200.773C289.329 201.767 288.202 202.544 286.82 203.102C285.446 203.652 283.86 203.926 282.061 203.926ZM305.396 203.5V174.409H316.873C319.079 174.409 320.959 174.83 322.512 175.673C324.065 176.507 325.249 177.667 326.063 179.153C326.887 180.631 327.299 182.335 327.299 184.267C327.299 186.199 326.882 187.903 326.049 189.381C325.216 190.858 324.008 192.009 322.427 192.832C320.855 193.656 318.951 194.068 316.717 194.068H309.401V189.139H315.722C316.906 189.139 317.881 188.936 318.648 188.528C319.425 188.112 320.003 187.539 320.381 186.81C320.77 186.071 320.964 185.223 320.964 184.267C320.964 183.301 320.77 182.458 320.381 181.739C320.003 181.009 319.425 180.446 318.648 180.048C317.872 179.641 316.887 179.438 315.694 179.438H311.546V203.5H305.396ZM337.232 174.409V203.5H331.18V174.409H337.232ZM348.3 203.912C346.908 203.912 345.668 203.67 344.579 203.188C343.49 202.695 342.628 201.971 341.994 201.014C341.369 200.048 341.056 198.846 341.056 197.406C341.056 196.194 341.279 195.176 341.724 194.352C342.169 193.528 342.775 192.866 343.542 192.364C344.309 191.862 345.18 191.483 346.156 191.227C347.14 190.972 348.173 190.792 349.252 190.688C350.521 190.555 351.544 190.432 352.32 190.318C353.097 190.195 353.66 190.015 354.011 189.778C354.361 189.542 354.536 189.191 354.536 188.727V188.642C354.536 187.742 354.252 187.046 353.684 186.554C353.125 186.062 352.33 185.815 351.298 185.815C350.209 185.815 349.342 186.057 348.698 186.54C348.054 187.013 347.628 187.61 347.42 188.33L341.823 187.875C342.107 186.549 342.666 185.403 343.499 184.438C344.333 183.462 345.407 182.714 346.724 182.193C348.049 181.663 349.584 181.398 351.326 181.398C352.538 181.398 353.698 181.54 354.806 181.824C355.924 182.108 356.913 182.548 357.775 183.145C358.646 183.741 359.333 184.509 359.835 185.446C360.336 186.374 360.587 187.487 360.587 188.784V203.5H354.849V200.474H354.678C354.328 201.156 353.859 201.758 353.272 202.278C352.685 202.79 351.979 203.192 351.156 203.486C350.332 203.77 349.38 203.912 348.3 203.912ZM350.033 199.736C350.924 199.736 351.71 199.561 352.391 199.21C353.073 198.85 353.608 198.367 353.996 197.761C354.385 197.155 354.579 196.469 354.579 195.702V193.386C354.389 193.509 354.129 193.623 353.798 193.727C353.476 193.822 353.111 193.912 352.704 193.997C352.297 194.073 351.889 194.144 351.482 194.21C351.075 194.267 350.706 194.319 350.374 194.366C349.664 194.471 349.044 194.636 348.513 194.864C347.983 195.091 347.571 195.399 347.278 195.787C346.984 196.166 346.837 196.639 346.837 197.207C346.837 198.031 347.136 198.661 347.732 199.097C348.338 199.523 349.105 199.736 350.033 199.736ZM368.237 211.682C367.469 211.682 366.75 211.62 366.077 211.497C365.415 211.384 364.865 211.237 364.43 211.057L365.793 206.54C366.504 206.758 367.143 206.876 367.711 206.895C368.289 206.914 368.786 206.781 369.202 206.497C369.629 206.213 369.974 205.73 370.239 205.048L370.594 204.125L362.768 181.682H369.131L373.648 197.705H373.876L378.435 181.682H384.842L376.362 205.858C375.954 207.032 375.4 208.055 374.7 208.926C374.008 209.807 373.132 210.484 372.072 210.957C371.011 211.44 369.733 211.682 368.237 211.682Z" fill="white"/>
<g clip-path="url(#clip2_695_1393)">
<rect x="74" y="251" width="312" height="260" rx="18" fill="white" fill-opacity="0.08"/>
<path d="M150.018 284.608L153.049 278.504C153.137 278.328 153.273 278.179 153.441 278.075C153.609 277.972 153.802 277.917 154 277.917C154.197 277.917 154.391 277.972 154.559 278.075C154.727 278.179 154.863 278.328 154.951 278.504L157.982 284.608L164.758 285.593C164.953 285.62 165.137 285.702 165.288 285.828C165.44 285.955 165.553 286.122 165.614 286.309C165.675 286.497 165.682 286.698 165.635 286.889C165.587 287.081 165.486 287.255 165.345 287.392L160.442 292.14L161.6 298.849C161.748 299.71 160.838 300.365 160.06 299.959L154 296.791L147.939 299.959C147.162 300.367 146.252 299.71 146.4 298.848L147.558 292.139L142.655 287.391C142.514 287.254 142.414 287.08 142.367 286.888C142.32 286.697 142.327 286.497 142.388 286.31C142.45 286.122 142.562 285.956 142.713 285.83C142.864 285.703 143.047 285.622 143.242 285.594L150.018 284.608Z" fill="#D6B918" stroke="#D6B918" stroke-width="1.5" stroke-linecap="round" stroke-linejoin="round"/>
<path d="M188.018 284.608L191.049 278.504C191.137 278.328 191.273 278.179 191.441 278.075C191.609 277.972 191.802 277.917 192 277.917C192.197 277.917 192.391 277.972 192.559 278.075C192.727 278.179 192.863 278.328 192.951 278.504L195.982 284.608L202.758 285.593C202.953 285.62 203.137 285.702 203.288 285.828C203.44 285.955 203.553 286.122 203.614 286.309C203.675 286.497 203.682 286.698 203.635 286.889C203.587 287.081 203.486 287.255 203.345 287.392L198.442 292.14L199.6 298.849C199.748 299.71 198.838 300.365 198.06 299.959L192 296.791L185.939 299.959C185.162 300.367 184.252 299.71 184.4 298.848L185.558 292.139L180.655 287.391C180.514 287.254 180.414 287.08 180.367 286.888C180.32 286.697 180.327 286.497 180.388 286.31C180.45 286.122 180.562 285.956 180.713 285.83C180.864 285.703 181.047 285.622 181.242 285.594L188.018 284.608Z" fill="#D6B918" stroke="#D6B918" stroke-width="1.5" stroke-linecap="round" stroke-linejoin="round"/>
<path d="M226.018 284.608L229.049 278.504C229.137 278.328 229.273 278.179 229.441 278.075C229.609 277.972 229.802 277.917 230 277.917C230.197 277.917 230.391 277.972 230.559 278.075C230.727 278.179 230.863 278.328 230.951 278.504L233.982 284.608L240.758 285.593C240.953 285.62 241.137 285.702 241.288 285.828C241.44 285.955 241.553 286.122 241.614 286.309C241.675 286.497 241.682 286.698 241.635 286.889C241.587 287.081 241.486 287.255 241.345 287.392L236.442 292.14L237.6 298.849C237.748 299.71 236.838 300.365 236.06 299.959L230 296.791L223.939 299.959C223.162 300.367 222.252 299.71 222.4 298.848L223.558 292.139L218.655 287.391C218.514 287.254 218.414 287.08 218.367 286.888C218.32 286.697 218.327 286.497 218.388 286.31C218.45 286.122 218.562 285.956 218.713 285.83C218.864 285.703 219.047 285.622 219.242 285.594L226.018 284.608Z" fill="#D6B918" stroke="#D6B918" stroke-width="1.5" stroke-linecap="round" stroke-linejoin="round"/>
<path d="M264.018 284.608L267.049 278.504C267.137 278.328 267.273 278.179 267.441 278.075C267.609 277.972 267.802 277.917 268 277.917C268.197 277.917 268.391 277.972 268.559 278.075C268.727 278.179 268.863 278.328 268.951 278.504L271.982 284.608L278.758 285.593C278.953 285.62 279.137 285.702 279.288 285.828C279.44 285.955 279.553 286.122 279.614 286.309C279.675 286.497 279.682 286.698 279.635 286.889C279.587 287.081 279.486 287.255 279.345 287.392L274.442 292.14L275.6 298.849C275.748 299.71 274.838 300.365 274.06 299.959L268 296.791L261.939 299.959C261.162 300.367 260.252 299.71 260.4 298.848L261.558 292.139L256.655 287.391C256.514 287.254 256.414 287.08 256.367 286.888C256.32 286.697 256.327 286.497 256.388 286.31C256.45 286.122 256.562 285.956 256.713 285.83C256.864 285.703 257.047 285.622 257.242 285.594L264.018 284.608Z" fill="#D6B918" stroke="#D6B918" stroke-width="1.5" stroke-linecap="round" stroke-linejoin="round"/>
<path d="M302.018 284.608L305.049 278.504C305.137 278.328 305.273 278.179 305.441 278.075C305.609 277.972 305.802 277.917 306 277.917C306.197 277.917 306.391 277.972 306.559 278.075C306.727 278.179 306.863 278.328 306.951 278.504L309.982 284.608L316.758 285.593C316.953 285.62 317.137 285.702 317.288 285.828C317.44 285.955 317.553 286.122 317.614 286.309C317.675 286.497 317.682 286.698 317.635 286.889C317.587 287.081 317.486 287.255 317.345 287.392L312.442 292.14L313.6 298.849C313.748 299.71 312.838 300.365 312.06 299.959L306 296.791L299.939 299.959C299.162 300.367 298.252 299.71 298.4 298.848L299.558 292.139L294.655 287.391C294.514 287.254 294.414 287.08 294.367 286.888C294.32 286.697 294.327 286.497 294.388 286.31C294.45 286.122 294.562 285.956 294.713 285.83C294.864 285.703 295.047 285.622 295.242 285.594L302.018 284.608Z" fill="#D6B918" stroke="#D6B918" stroke-width="1.5" stroke-linecap="round" stroke-linejoin="round"/>
<rect x="98" y="337" width="264" height="20" rx="8" fill="white" fill-opacity="0.12"/>
<rect x="98" y="371" width="188" height="20" rx="8" fill="white" fill-opacity="0.12"/>
<path d="M98 413C98 408.582 101.582 405 106 405H354C358.418 405 362 408.582 362 413V511H98V413Z" fill="white" fill-opacity="0.12"/>
</g>
</g>
</g>
<defs>
<filter id="filter0_d_695_1393" x="0" y="0" width="460" height="585" filterUnits="userSpaceOnUse" color-interpolation-filters="sRGB">
<feFlood flood-opacity="0" result="BackgroundImageFix"/>
<feColorMatrix in="SourceAlpha" type="matrix" values="0 0 0 0 0 0 0 0 0 0 0 0 0 0 0 0 0 0 127 0" result="hardAlpha"/>
<feMorphology radius="4" operator="dilate" in="SourceAlpha" result="effect1_dropShadow_695_1393"/>
<feOffset/>
<feGaussianBlur stdDeviation="10"/>
<feComposite in2="hardAlpha" operator="out"/>
<feColorMatrix type="matrix" values="0 0 0 0 0 0 0 0 0 0 0 0 0 0 0 0 0 0 0.2 0"/>
<feBlend mode="normal" in2="BackgroundImageFix" result="effect1_dropShadow_695_1393"/>
<feBlend mode="normal" in="SourceGraphic" in2="effect1_dropShadow_695_1393" result="shape"/>
</filter>
<linearGradient id="paint0_linear_695_1393" x1="105.768" y1="145.59" x2="60.7106" y2="190.647" gradientUnits="userSpaceOnUse">
<stop stop-color="#008EFF"/>
<stop offset="0.01" stop-color="#008FFF"/>
<stop offset="0.26" stop-color="#00ACFF"/>
<stop offset="0.51" stop-color="#00C0FF"/>
<stop offset="0.76" stop-color="#00CDFF"/>
<stop offset="1" stop-color="#00D1FF"/>
</linearGradient>
<linearGradient id="paint1_linear_695_1393" x1="133.628" y1="175.907" x2="68.6672" y2="175.907" gradientUnits="userSpaceOnUse">
<stop stop-color="#FFD800"/>
<stop offset="1" stop-color="#FF8A00"/>
</linearGradient>
<linearGradient id="paint2_linear_695_1393" x1="113.883" y1="182.06" x2="52.799" y2="243.143" gradientUnits="userSpaceOnUse">
<stop stop-color="#FF3A44"/>
<stop offset="1" stop-color="#B11162"/>
</linearGradient>
<linearGradient id="paint3_linear_695_1393" x1="66.8189" y1="122.69" x2="94.1149" y2="149.963" gradientUnits="userSpaceOnUse">
<stop stop-color="#328E71"/>
<stop offset="0.07" stop-color="#2D9571"/>
<stop offset="0.48" stop-color="#15BD74"/>
<stop offset="0.8" stop-color="#06D575"/>
<stop offset="1" stop-color="#00DE76"/>
</linearGradient>
<clipPath id="clip0_695_1393">
<rect x="24" y="24" width="412" height="537" rx="50" fill="white"/>
</clipPath>
<clipPath id="clip1_695_1393">
<rect width="80" height="80" fill="white" transform="translate(74 136)"/>
</clipPath>
<clipPath id="clip2_695_1393">
<rect x="74" y="251" width="312" height="260" rx="18" fill="white"/>
</clipPath>
</defs>
</svg>
