<svg id="Layer_1" enable-background="new 0 0 512 512" height="512" viewBox="0 0 512 512" width="512" xmlns="http://www.w3.org/2000/svg"><g><g clip-rule="evenodd" fill-rule="evenodd"><path d="m168.579 0h173.378l153.1 153.07v293.997c0 35.729-29.233 64.933-64.933 64.933h-261.545c-35.7 0-64.933-29.204-64.933-64.933v-382.134c.001-35.73 29.234-64.933 64.933-64.933z" fill="#008bf5"/><path d="m341.958 0 153.1 153.07h-136.567c-9.1 0-16.533-7.403-16.533-16.504z" fill="#006fc4"/><path d="m31.193 218.003h352.638c7.813 0 14.251 6.408 14.251 14.251v129.368c0 7.842-6.438 14.28-14.251 14.28h-352.638c-7.842 0-14.251-6.438-14.251-14.28v-129.368c.001-7.843 6.409-14.251 14.251-14.251z" fill="#006fc4"/></g><path d="m169.779 244.413c-19.225 0-34.865 15.641-34.865 34.865v35.348c0 19.225 15.641 34.865 34.865 34.865 19.226 0 34.866-15.641 34.866-34.865v-35.348c0-19.225-15.64-34.865-34.866-34.865zm18.333 70.213c0 10.108-8.224 18.332-18.333 18.332-10.108 0-18.332-8.224-18.332-18.332v-35.348c0-10.108 8.224-18.332 18.332-18.332 10.109 0 18.333 8.224 18.333 18.332zm44.215-35.348v35.348c0 10.108 8.224 18.332 18.332 18.332 10.109 0 18.333-8.224 18.333-18.332 0-4.566 3.701-8.267 8.267-8.267s8.266 3.701 8.266 8.267c0 19.225-15.641 34.865-34.866 34.865s-34.865-15.641-34.865-34.865v-35.348c0-19.225 15.641-34.865 34.865-34.865 19.226 0 34.866 15.641 34.866 34.865 0 4.566-3.701 8.267-8.266 8.267-4.566 0-8.267-3.701-8.267-8.267 0-10.108-8.224-18.332-18.333-18.332-10.108 0-18.332 8.224-18.332 18.332zm-144.833-34.865h-26.599c-4.566 0-8.266 3.701-8.266 8.266v88.546c0 4.566 3.701 8.266 8.266 8.266h26.599c19.225 0 34.865-15.641 34.865-34.865v-35.348c.001-19.225-15.64-34.865-34.865-34.865zm18.333 70.213c0 10.108-8.224 18.332-18.332 18.332h-18.333v-72.013h18.332c10.108 0 18.332 8.224 18.332 18.332v35.349zm255.361 22.342c2.351 3.913 1.085 8.992-2.829 11.343-1.333.8-2.801 1.181-4.249 1.181-2.807 0-5.544-1.43-7.094-4.01l-19.513-32.479-19.513 32.479c-1.55 2.581-4.288 4.01-7.094 4.01-1.45 0-2.916-.381-4.249-1.181-3.913-2.351-5.18-7.43-2.829-11.343l24.042-40.016-24.042-40.016c-2.351-3.913-1.085-8.992 2.829-11.343 3.915-2.351 8.992-1.084 11.343 2.829l19.513 32.479 19.513-32.479c2.351-3.913 7.429-5.18 11.343-2.829 3.913 2.351 5.18 7.43 2.829 11.343l-24.042 40.016z" fill="#fff"/></g></svg>