<svg width="24" height="24" viewBox="0 0 24 24" fill="none" xmlns="http://www.w3.org/2000/svg">
<path d="M6.5 11.25C5.18334 11.3443 3.8759 10.9687 2.81 10.19C1.39 8.78 1.39 4.19 2.81 2.81C4.23 1.43 8.81 1.39 10.19 2.81C11.57 4.23 11.61 8.81 10.19 10.19C9.1241 10.9687 7.81666 11.3443 6.5 11.25ZM6.5 3.25C5.57834 3.17096 4.65582 3.39194 3.87 3.88C3 4.7 3 8.3 3.87 9.13C4.74 9.96 8.29 9.97 9.13 9.13C9.97 8.29 9.97 4.7 9.13 3.87C8.34419 3.38194 7.42166 3.16096 6.5 3.24V3.25Z" fill="#B7B7B7"/>
<path d="M6.5 22.25C5.18334 22.3443 3.8759 21.9687 2.81 21.19C1.39 19.78 1.39 15.19 2.81 13.81C4.23 12.43 8.81 12.39 10.19 13.81C11.57 15.23 11.61 19.81 10.19 21.19C9.1241 21.9687 7.81666 22.3443 6.5 22.25ZM6.5 14.25C5.57834 14.171 4.65582 14.3919 3.87 14.88C3.03 15.71 3.03 19.31 3.87 20.14C4.71 20.97 8.29 20.98 9.13 20.14C9.97 19.3 9.97 15.71 9.13 14.88C8.34537 14.3884 7.42276 14.1639 6.5 14.24V14.25Z" fill="#D6572E"/>
<path d="M17.5 11.25C16.1833 11.3443 14.8759 10.9687 13.81 10.19C12.39 8.78 12.39 4.19 13.81 2.81C15.23 1.43 19.81 1.39 21.19 2.81C22.57 4.23 22.61 8.81 21.19 10.19C20.1241 10.9687 18.8167 11.3443 17.5 11.25ZM17.5 3.25C16.5783 3.17096 15.6558 3.39194 14.87 3.88C14.03 4.71 14.03 8.31 14.87 9.14C15.71 9.97 19.29 9.98 20.13 9.14C20.97 8.3 20.97 4.71 20.13 3.88C19.3454 3.38845 18.4228 3.16394 17.5 3.24V3.25Z" fill="#D6572E"/>
<path d="M17.5 22.25C16.1833 22.3443 14.8759 21.9687 13.81 21.19C12.39 19.78 12.39 15.19 13.81 13.81C15.23 12.43 19.81 12.39 21.19 13.81C22.57 15.23 22.61 19.81 21.19 21.19C20.1241 21.9687 18.8167 22.3443 17.5 22.25ZM17.5 14.25C16.5783 14.171 15.6558 14.3919 14.87 14.88C14.03 15.71 14.03 19.31 14.87 20.14C15.71 20.97 19.29 20.98 20.13 20.14C20.97 19.3 20.97 15.71 20.13 14.88C19.3454 14.3884 18.4228 14.1639 17.5 14.24V14.25Z" fill="#B7B7B7"/>
</svg>
