<svg width="156" height="156" viewBox="0 0 156 156" fill="none" xmlns="http://www.w3.org/2000/svg">
<path d="M60.8366 71.8958C62.0795 71.4815 63.1196 71.4358 64.278 70.6668C66.1005 69.4648 65.5453 67.8649 65.2892 65.9593C64.6534 61.2225 64.1424 58.325 63.5026 53.5638C63.4585 53.2289 62.9636 53.3067 63.0075 53.6302C63.6409 58.3517 64.1509 61.242 64.7941 66.0257C65.0375 67.8458 65.565 69.2192 64.0021 70.2498C62.9294 70.9616 61.9472 70.9998 60.6784 71.4212C60.3691 71.5239 60.5175 72.0022 60.8366 71.8958Z" fill="#F66435"/>
<path d="M53.7731 57.4593C54.5396 57.152 56.0365 56.4202 56.0563 55.6064C56.0646 55.2646 55.81 54.9631 55.51 54.7991C54.5809 54.2912 53.6242 54.9835 52.7727 55.427C49.5022 57.1307 50.8339 58.6376 53.7731 57.4593Z" fill="#F66435"/>
<path d="M72.5465 57.2773C72.806 57.0547 72.8597 56.6638 72.7808 56.3312C72.5365 55.3008 71.3819 55.0533 70.4825 54.7172C69.881 54.4926 69.2417 54.3149 68.5907 54.2917C67.5455 54.2545 67.4834 55.1129 68.0703 55.7336C68.9247 56.637 71.6973 58.0055 72.5465 57.2773Z" fill="#F66435"/>
<path d="M45.2637 59.8159C45.9867 60.878 45.3127 62.21 44.8487 61.8408C44.6889 61.7111 44.2395 60.6611 44.3179 59.5175C44.3397 59.1944 43.8431 59.1415 43.8189 59.4834C43.7642 60.2866 43.9141 61.0976 44.252 61.8291C44.4089 62.1697 44.619 62.3867 45.002 62.3867C45.988 62.3867 46.4832 60.7169 45.6768 59.5346C45.4936 59.2622 45.0763 59.5413 45.2637 59.8159Z" fill="#F66435"/>
<path d="M50.8638 61.9582C50.9645 61.9582 54.3136 61.8 54.2129 61.7975C53.4128 62.7987 53.858 64.8785 54.8199 64.8785C55.8204 64.8785 56.2261 62.6834 55.3835 61.7413L58.3428 61.5993C58.6878 61.5834 58.6331 61.0563 58.3184 61.1003L50.8516 61.4587C50.5292 61.4735 50.5412 61.9582 50.8638 61.9582Z" fill="#F66435"/>
<path d="M67.8805 61.3671C67.9812 61.3671 71.3263 61.3018 71.2256 61.3008C70.3978 62.2793 70.7845 64.3701 71.7461 64.3972C72.7461 64.4252 73.2132 62.2431 72.3979 61.2775L75.3595 61.2187C75.7168 61.2111 75.6491 60.6567 75.3498 60.7187L67.8756 60.8671C67.5466 60.8741 67.5543 61.3671 67.8805 61.3671Z" fill="#F66435"/>
<path d="M57.4845 77.8688C59.3033 77.1285 62.1866 76.7187 63.8307 77.5246C64.1273 77.6712 64.3477 77.2217 64.0504 77.0754C62.2352 76.1858 59.1888 76.6362 57.296 77.406C56.9921 77.5289 57.1764 77.996 57.4845 77.8688Z" fill="#F66435"/>
<path d="M97.7408 129.915C97.4507 129.755 97.2114 130.195 97.5005 130.353C98.94 131.142 100.35 132.018 101.692 132.957C101.963 133.144 102.25 132.737 101.979 132.547C100.623 131.598 99.1968 130.712 97.7408 129.915Z" fill="#F66435"/>
<path d="M107.047 61.4131C100.575 64.0108 96.9617 68.51 97.8824 75.5665C98.7502 82.4132 103.732 86.2019 108.425 85.6773C106.231 92.9598 105.649 103.457 106.57 109.705C103.84 108.999 100.95 108.373 97.9638 107.843C97.263 103.372 96.0229 99.4246 94.2545 96.0728L94.2518 96.0706C93.0488 93.4866 91.5896 91.316 89.9206 89.5983C91.4591 87.5421 93.0379 84.2991 93.0352 81.8714C96.4313 79.6213 98.2439 75.3303 97.4449 71.3755C96.6764 67.5874 93.5115 64.4378 89.7789 63.5292C90.3752 62.4565 90.6165 61.272 89.9402 60.0452C89.5702 59.3752 88.6802 59.1352 88.3502 58.6152C87.9802 58.0152 88.3902 57.6551 88.6102 56.8652C90.1297 51.4169 84.8687 46.0924 81.5902 45.7751C80.4294 45.6534 79.1723 46.1431 78.5724 47.1241C78.6609 47.3654 78.3498 48.0475 78.3519 50.0016C78.3519 50.3362 77.8519 50.3337 77.8519 50.0026C77.8509 49.0495 77.9369 48.093 78.1073 47.1594C78.1322 47.0236 78.264 46.9333 78.3983 46.9582C78.4391 46.9657 78.4642 46.9969 78.4948 47.0206C79.3941 41.8073 74.76 37.0783 69.0002 37.7652C67.0402 38.0052 64.8402 39.3852 65.0502 41.3452C63.1602 38.1052 59.1403 36.2652 55.4602 36.9452C51.8257 37.6149 48.7786 40.6821 48.0951 44.3002C48.2068 44.2986 48.3131 44.3547 48.3441 44.4675C48.5853 45.3439 48.724 46.2468 48.7567 47.152C48.7685 47.4845 48.2687 47.5022 48.2567 47.1696C48.2259 46.3034 48.0931 45.4391 47.8617 44.6003C47.8386 44.516 47.8718 44.4404 47.9253 44.3793C45.2083 42.6268 41.8511 41.1549 38.8602 42.3552C35.0456 43.8848 32.3921 50.336 34.2981 54.4786C34.3182 54.4523 34.328 54.4192 34.3588 54.402C34.4784 54.3371 34.6317 54.3786 34.6991 54.4992C35.1517 55.3151 35.4965 56.1862 35.723 57.0886C35.8028 57.4114 35.3188 57.5295 35.2377 57.2106C34.8799 55.7846 34.3447 54.9319 34.258 54.7112C32.4059 53.7871 29.9719 54.5557 28.7102 56.2151C27.1328 58.3062 27.207 61.5029 28.6331 63.7897C25.5251 65.1236 23.0611 68.0177 22.464 71.3619C21.6256 76.1335 24.6346 81.2497 29.1039 82.6877C29.6408 85.3266 30.7814 87.8344 32.4485 89.9618C32.4836 90.0917 32.5195 90.2202 32.5566 90.3472C32.4988 90.3752 32.5657 90.3548 32.3802 90.4338C32.3566 90.436 32.3341 90.4239 32.3111 90.4332C29.3223 91.6446 26.8722 95.4172 25.2467 98.2056C23.357 101.448 21.4415 104.934 20.5992 108.755C19.8519 112.145 20.1367 115.267 21.3625 117.755C21.2917 118.057 21.2439 118.329 21.2148 118.583C18.4261 120.568 15.9299 122.762 13.8136 125.128C13.5936 125.375 13.9661 125.708 14.1866 125.461C16.3785 123.01 18.9756 120.74 21.8978 118.703C24.2661 122.409 27.9878 123.281 32.3512 123.281C35.6915 123.281 39.8551 122.701 43.8151 120.549C48.789 117.848 49.3807 113.622 49.1679 107.913C53.8782 106.995 58.8349 106.4 63.9119 106.141C64.0437 110.246 64.9168 114.381 66.4757 118.17C67.6668 121.065 68.5603 121.779 72.7726 122.809C75.2167 123.407 77.5026 124.136 81.6598 124.136C85.8815 124.136 90.0572 123.234 93.7916 121.509C97.0086 120.023 98.9059 118.15 98.4693 112.25C98.3703 110.912 98.2193 109.622 98.0355 108.364C101.024 108.898 103.917 109.528 106.643 110.238C106.956 112.176 107.426 114.01 108.037 115.7L91.3072 125.177C90.2131 125.795 89.8067 127.073 90.1742 128.156C90.1369 129.313 90.4152 130.533 91.4302 131.105C91.4502 131.115 105.2 138.865 105.2 138.865C105.88 139.255 106.73 139.255 107.41 138.865L131.48 125.075C132.251 124.632 132.645 123.743 132.752 122.823C135.044 124.723 137.261 126.85 139.343 129.172C139.563 129.416 139.938 129.087 139.716 128.838C137.529 126.401 135.197 124.171 132.784 122.196C132.782 122.093 132.769 121.994 132.76 121.894C133.025 120.739 132.534 119.721 131.65 119.191L118.529 111.231C117.749 110.762 116.783 110.745 116.006 111.188L114.43 112.08C113.415 111.709 112.401 111.384 111.37 111.062C112.388 102.873 115.503 95.1134 120.404 88.6002C123.438 88.9566 127.538 89.421 130.998 88.7403C141.28 86.7187 145.208 75.0492 139.877 65.8301C136.794 60.4781 131.133 59.6099 126.07 59.2164C118.341 58.6085 112.296 59.3067 107.047 61.4131ZM86.7537 92.2097C88.297 89.315 89.5107 85.5888 90.2798 81.4552C90.5395 81.3138 91.06 79.939 91.8063 80.0977C93.4743 80.4412 92.4248 87.5215 86.7537 92.2097ZM85.7242 92.9991C85.6659 93.04 85.6327 93.101 85.6228 93.1661C84.3336 95.2424 83.3745 96.669 82.2124 100.711C78.7408 99.66 74.985 98.8369 71.3162 99.1503C71.3288 96.6481 70.3757 94.1367 70.4703 91.7042C70.549 89.4924 71.285 87.794 72.1354 86.8316C73.9669 84.5445 74.5895 81.5367 73.7999 78.7837C73.6139 78.1602 73.4454 77.502 73.2843 76.772C72.8902 74.9644 73.1285 73.8536 74.0362 73.275C75.1546 72.546 77.4142 72.9399 78.5124 76.9488C78.8975 79.047 78.3277 79.6512 78.8199 79.709C78.8297 79.71 78.8395 79.7105 78.8492 79.7105C78.9742 79.7105 79.0821 79.6168 79.0973 79.4893C79.1676 78.8826 79.1687 78.2754 79.1149 77.6722C79.1479 77.6229 79.1668 77.5633 79.1578 77.5001C78.9328 75.9247 78.3209 71.9194 79.0773 70.3096C79.627 69.1153 80.8136 68.9837 81.7125 69.7906C82.2154 70.2432 82.5143 70.8824 82.7179 71.3873C84.0558 74.7517 83.5028 77.3509 83.5031 77.2508C83.4816 77.3697 83.465 78.5467 82.7384 80.0689C82.5949 80.3699 83.0476 80.5815 83.1896 80.2847C83.9043 78.7884 83.9355 77.7068 84.0246 77.1992C84.3463 75.7129 85.1644 72.1438 85.5323 71.44C86.6017 69.3678 88.8609 69.3055 89.9723 71.2579C90.4508 72.1094 90.6881 73.1055 90.6402 74.0626C90.2634 81.5367 88.4397 88.5262 85.7307 92.9941C85.7285 92.9957 85.7264 92.9975 85.7242 92.9991ZM96.9547 71.4747C97.6957 75.1428 96.0712 79.1139 92.9908 81.2933C92.9798 81.1957 92.9856 81.0991 92.9684 81.0015C92.7025 79.4961 91.5297 79.2346 90.7584 80.0128C90.6712 80.1008 90.5724 80.2233 90.4694 80.3587C90.8016 78.337 91.0319 76.2328 91.1402 74.0875C91.192 73.0372 90.9322 71.9454 90.4078 71.0118C89.1149 68.739 86.3496 68.7651 85.0885 71.2095C84.823 71.7171 84.3914 73.3932 84.0458 74.8495C83.9027 73.1608 83.4037 71.5296 82.8473 70.4872C82.8268 69.1926 82.6936 67.8619 82.4517 66.4543C83.475 64.4016 86.0742 63.6354 88.2223 63.7847C92.3727 64.0865 96.1266 67.3926 96.9547 71.4747ZM65.1937 40.9308C65.275 40.6094 65.7611 40.7371 65.6771 41.0568C65.3221 42.4221 65.2123 43.8264 65.3509 45.2311C65.3827 45.5612 64.8867 45.6121 64.8529 45.28C64.7089 43.8166 64.8231 42.3532 65.1937 40.9308ZM56.0602 50.2051C60.7702 49.8951 65.5202 50.2252 70.1602 51.2151C74.2902 52.0851 77.9802 55.0652 80.0402 59.1252C81.3073 61.6295 81.6555 64.2963 82.0102 67.1451C82.0202 67.1852 82.0202 67.2352 82.0202 67.2751L82.0425 67.0333C82.1852 67.9551 82.2741 68.8423 82.3172 69.7101C81.5921 68.8726 80.6803 68.6414 79.9479 68.856C77.9132 69.4716 78.1105 72.7731 78.3351 75.0191C77.2576 72.5603 75.0394 72.0284 73.7657 72.8541C71.9017 74.0431 72.6902 76.8096 73.3199 78.9239C74.0641 81.5191 73.4757 84.3585 71.753 86.5093C71.1882 87.1479 70.5808 88.255 70.2444 89.7187C65.8031 91.1768 60.8512 90.7873 56.1852 90.5059C53.459 90.3383 50.7912 89.6474 48.4602 88.5151C48.1686 87.3652 48.2712 87.8752 48.1417 87.4805C47.0934 84.9131 47.3361 82.023 48.7892 79.752C49.1236 79.2418 49.4664 78.668 49.8693 77.9459C50.5055 76.7881 51.2198 75.1002 50.0797 73.8121C49.1123 72.6878 46.9195 72.4915 45.0909 74.5855C45.5945 73.3501 46.3966 71.11 46.2076 69.7891C45.9652 68.1305 44.4903 67.5145 43.1158 68.168C41.6986 68.8189 40.2456 71.2487 39.6569 72.7315C39.7369 71.2476 39.7941 69.5709 39.6861 69.0196C39.4991 68.0065 38.9299 67.1559 38.1825 66.7063C38.8611 60.7722 41.3969 56.2615 45.3444 54.002C45.5353 53.8933 45.5028 53.6079 45.2888 53.546C48.5426 51.1904 52.0692 50.4903 56.0602 50.2051ZM44.7849 100.524C36.2397 100.366 35.1545 100.305 34.0131 100.395C34.1696 97.3865 34.1672 93.8929 33.1188 90.501C31.546 85.4322 31.7081 77.837 33.5533 70.1841C33.7809 69.2447 34.2926 68.3575 34.9933 67.6861C36.6185 66.1242 38.7737 66.8343 39.1949 69.1133C39.3434 69.8716 39.1408 73.2743 39.0033 75.1061C38.7932 76.1481 38.7692 77.2091 38.9361 78.2603C38.9886 78.591 39.4817 78.5082 39.4303 78.1822C38.7716 74.0398 41.587 69.4215 43.3277 68.6207C44.4 68.1118 45.5197 68.5317 45.7125 69.8604C45.9626 71.6093 44.3265 75.1448 43.5934 76.73C43.5663 76.7889 43.5668 76.8527 43.5851 76.9102C43.3625 77.4731 43.1913 78.0557 43.0865 78.6583C43.0294 78.9838 43.5224 79.0706 43.5787 78.7442C43.9026 76.8816 44.559 75.9537 45.5577 74.8106C47.0679 73.0979 48.9207 73.2334 49.7032 74.1407C50.4132 74.9434 50.3268 76.0757 49.4318 77.7037C49.0358 78.4141 48.6988 78.9781 48.3697 79.4805C46.8273 81.8902 46.569 84.9517 47.6793 87.671C48.3645 89.2833 48.3313 91.1015 47.8981 92.8135C47.2192 95.4868 45.3161 97.7275 44.7849 100.524ZM37.7115 66.4817C37.7068 66.4801 37.7024 66.4775 37.6976 66.476C37.7026 66.4763 37.7074 66.4757 37.7124 66.4757C37.7121 66.4777 37.7117 66.4796 37.7115 66.4817ZM22.9562 71.4493C23.6876 67.3521 27.3629 63.9537 31.5035 63.544C33.6944 63.337 36.5011 64.1275 37.4816 66.3463C37.5027 66.394 37.5452 66.4207 37.5867 66.4462C35.5094 65.8636 33.5808 67.9513 33.067 70.0665C32.5638 72.1542 32.1893 74.2369 31.9355 76.2693C30.9249 73.6091 27.8694 75.4528 28.9982 82.1222C24.7927 80.5792 22.1923 75.7972 22.9562 71.4493ZM29.2506 79.5772C29.1802 75.9469 30.6963 74.9362 31.3151 76.0909C31.5196 76.4701 31.6959 77.1662 31.7296 77.2759C31.7419 77.319 31.777 77.3441 31.8069 77.3736C31.3734 81.5612 31.4831 85.4825 32.1454 88.6968C30.3349 86.0123 29.3132 82.8211 29.2506 79.5772ZM43.5768 120.11C38.691 122.764 33.4777 122.974 29.9625 122.682C22.6304 122.074 19.4975 116.073 21.0875 108.862C21.9142 105.112 23.8087 101.666 25.6783 98.4576C27.1999 95.8478 29.485 92.2961 32.2412 91.0316C32.2527 91.0332 32.262 91.0445 32.2736 91.0445C32.4257 91.0445 32.3984 90.957 32.6529 90.8594C32.6653 90.8547 32.6802 90.8466 32.6932 90.8415C33.6693 94.1289 33.6656 97.5237 33.5102 100.449C32.6628 100.558 32.0609 100.645 31.6691 101.11C31.2828 101.568 31.0685 102.119 30.9567 102.502C30.8535 102.852 30.8466 102.937 30.3585 105.644C30.2994 105.972 30.7923 106.052 30.8507 105.732C31.2057 103.764 31.3259 103.018 31.4361 102.642C31.5348 102.306 31.7213 101.824 32.0514 101.433C32.598 100.784 35.2615 100.844 36.0992 100.859C38.1921 100.9 45.446 101.043 44.9986 101.029L45.1432 101.031C47.6347 101.079 48.0722 101.757 48.295 103.444C48.588 105.651 48.7262 107.901 48.7057 110.131C48.6583 115.266 47.172 118.157 43.5768 120.11ZM49.1458 107.41C49.0815 106.06 48.9676 104.711 48.7911 103.379C48.5326 101.437 47.8711 100.603 45.2944 100.536C46.0378 96.827 49.3841 93.9388 48.6014 89.1183C50.9059 90.1807 53.4994 90.8414 56.1549 91.0049C60.8239 91.2904 65.6637 91.6602 70.1093 90.2841C69.5409 93.695 70.8504 96.201 70.8173 99.1943C69.6366 99.3295 68.4666 99.5847 67.3209 99.9976C64.2687 101.097 63.8481 102.604 63.9001 105.641C58.8212 105.899 53.8614 106.495 49.1458 107.41ZM93.5826 121.055C89.6363 122.878 85.1837 123.771 80.7203 123.621C77.0346 123.502 74.7593 122.78 72.8917 122.323C68.7496 121.31 68.043 120.663 66.9376 117.98C65.2609 113.902 64.378 109.418 64.3854 105.011C64.3906 102.585 64.9121 101.397 67.4908 100.468C73.4782 98.3102 80.1487 100.485 86.0704 102.495C87.0041 102.812 86.5658 103.914 86.5616 105.158C86.5605 105.49 87.0605 105.493 87.0616 105.159C87.0658 103.983 87.5851 102.481 86.2311 102.022C85.1012 101.638 83.9142 101.237 82.6905 100.857C83.8655 96.7663 84.9146 95.2815 86.1067 93.3351C87.4279 92.3925 88.6 91.2599 89.6051 89.9943C91.6521 92.1164 92.6331 94.0017 93.813 96.3047C94.2593 97.48 97.2226 102.176 97.9713 112.287C98.3888 117.928 96.6296 119.647 93.5826 121.055ZM116.255 111.623C116.871 111.27 117.644 111.283 118.27 111.659L131.391 119.62C132.685 120.395 132.658 122.324 131.356 123.048L107.283 136.84C106.68 137.192 105.93 137.196 105.323 136.847L91.5533 129.087C90.1877 128.316 90.2261 126.362 91.5533 125.612L108.21 116.176C108.545 117.061 108.798 117.588 108.842 117.689L96.9502 124.425C95.8102 125.065 95.8202 126.705 96.9502 127.345C114.877 137.449 103.034 130.774 107.24 133.145C107.75 133.435 108.38 133.435 108.89 133.145L117.26 128.345H117.27L126.88 122.835C127.98 122.205 128 120.615 126.91 119.945L117.1 114.005C116.58 113.685 115.93 113.675 115.41 113.975L111.012 116.462C111.015 115.809 111.026 115.284 111.074 114.555C111.176 114.497 114.708 112.498 114.606 112.556L116.255 111.623ZM112.077 126.024C112.241 126.718 112.327 127.511 112.832 127.921C113.087 128.13 112.773 128.515 112.515 128.309C111.873 127.786 111.774 126.917 111.591 126.14C111.432 125.473 111.021 124.808 110.462 124.808C110.361 124.839 110.309 124.735 109.671 125.119C108.222 125.993 107.845 126.314 107.367 126.012C106.976 125.762 107.005 125.321 106.861 124.059C106.743 123.025 106.446 122.972 105.793 123.061C105.082 123.159 104.704 123.351 104.604 123.665C104.502 123.978 104.027 123.829 104.128 123.514C104.344 122.832 105.142 122.646 105.724 122.566C106.707 122.427 107.216 122.732 107.357 124.002C107.622 126.172 107.287 125.9 109.413 124.691C109.687 124.526 110.03 124.32 110.426 124.309C111.333 124.258 111.884 125.216 112.077 126.024ZM111.552 119.432C112.083 118.542 113.213 118.278 113.646 118.57C113.802 118.674 113.89 118.83 113.954 118.969C114.722 120.602 113.804 121.237 115.153 120.5C115.733 120.182 116.397 119.886 117.008 120.247C117.912 120.785 117.562 121.983 117.886 122.66C118.029 122.961 117.576 123.173 117.434 122.876C117.232 122.453 117.238 121.999 117.185 121.57C117.068 120.628 116.567 120.388 115.807 120.726C115.134 121.026 113.913 122.022 113.817 120.434C113.794 120.004 113.684 119.571 113.501 119.181C113.409 118.983 113.354 118.925 113.112 118.958C112.652 119.011 112.219 119.291 111.981 119.688C111.811 119.971 111.383 119.718 111.552 119.432ZM113.85 112.409L111.11 113.96C111.154 113.192 111.219 112.402 111.309 111.568C112.89 112.061 113.222 112.186 113.85 112.409ZM139.443 66.0801C144.577 74.9533 140.891 86.2852 130.902 88.2501C127.463 88.9254 123.335 88.4415 120.32 88.0865C120.234 88.0782 120.145 88.1133 120.091 88.1841C113.54 96.8367 109.972 107.928 110.574 119.175C110.429 119.276 110.319 119.318 110.232 119.315C108.611 116.478 107.617 113.25 107.107 109.996C106.133 103.869 106.685 92.9153 109.018 85.4498C109.073 85.2778 108.928 85.0957 108.738 85.1285C104.228 85.8963 99.2356 82.2654 98.3785 75.503C97.4891 68.6889 100.956 64.3966 107.233 61.877C112.409 59.8004 118.383 59.1158 126.031 59.7144C130.967 60.0987 136.482 60.9385 139.443 66.0801Z" fill="#F66435"/>
<path d="M114.527 71.0175C114.583 70.9548 114.61 70.8659 114.608 70.7506L114.472 64.0958C119.859 71.0325 119.643 70.839 119.824 70.95C119.932 71.0165 120.144 71.0282 120.244 70.901C120.372 70.7364 120.295 71.0125 120.159 63.073C120.157 62.9577 120.126 62.8719 120.068 62.8154C119.921 62.675 119.494 62.6751 119.502 63.0864L119.638 69.7379C114.435 63.024 114.412 62.9579 114.309 62.8923C114.21 62.8291 113.974 62.8254 113.872 62.9473C113.729 63.1177 113.818 62.8952 113.951 70.7639C113.959 71.1849 114.386 71.1732 114.527 71.0175Z" fill="#F66435"/>
<path d="M124.41 65.1423C122.77 65.1756 121.865 66.4197 121.899 68.0879C121.936 69.9355 123.04 70.9589 124.528 70.9287C126.181 70.8951 127.086 69.6747 127.051 67.9829C127.017 66.312 126.068 65.1085 124.41 65.1423ZM126.337 67.9975C126.369 69.5845 125.572 70.3192 124.516 70.3407C123.505 70.3614 122.646 69.684 122.613 68.0733C122.581 66.4985 123.382 65.7629 124.423 65.7417C125.457 65.7206 126.304 66.3949 126.337 67.9975Z" fill="#F66435"/>
<path d="M106.399 72.4895V78.5684C101.256 71.6779 101.764 72.1734 101.459 72.1734C101.302 72.1734 101.185 72.2721 101.185 72.5106C101.212 79.8125 101.039 79.7266 101.49 79.7266C101.684 79.7266 101.785 79.5979 101.785 79.3999V73.3181C106.614 79.7306 106.361 79.7266 106.737 79.7266C106.887 79.7266 107 79.6323 107 79.3999C106.973 72.1873 107.065 72.3961 106.921 72.2525C106.79 72.1218 106.399 72.113 106.399 72.4895Z" fill="#F66435"/>
<path d="M110.897 74.4595C109.556 74.4595 108.496 75.4557 108.496 77.1247C108.496 78.7491 109.447 79.7477 111.034 79.7477C111.618 79.7477 112.316 79.5778 112.794 79.1893C113.165 78.93 112.829 78.5011 112.478 78.747C112.084 79.0333 111.623 79.2104 111.013 79.2104C109.904 79.2104 109.18 78.5708 109.136 77.2405H112.762C112.943 77.2405 113.057 77.144 113.057 76.9456C113.057 75.5018 112.321 74.4595 110.897 74.4595ZM109.153 76.7665C109.264 75.5238 109.973 74.9756 110.908 74.9756C111.779 74.9756 112.43 75.4853 112.477 76.7665H109.153Z" fill="#F66435"/>
<path d="M116.955 79.0946C116.801 79.0946 116.654 79.1893 116.365 79.1893C115.528 79.1893 115.227 78.7024 115.227 77.8726V75.0704C116.477 75.0112 116.944 75.2298 116.944 74.807C116.944 74.6563 116.85 74.5542 116.649 74.5542H115.227C115.203 73.2876 115.284 73.1227 115.143 72.9899C115.023 72.8782 114.776 72.8891 114.669 72.9899C114.527 73.1222 114.608 73.2888 114.584 74.5542H113.805C113.401 74.5542 113.386 75.0704 113.805 75.0704H114.584C114.631 77.7388 114.466 78.2904 114.774 78.9313C115.165 79.7455 116.232 79.9028 116.976 79.6318C117.212 79.5795 117.201 79.0946 116.955 79.0946Z" fill="#F66435"/>
<path d="M124.982 74.5331C124.86 74.6206 124.939 74.5512 123.386 78.9101L121.937 74.7859C121.795 74.3623 121.261 74.3808 121.126 74.7859L119.639 78.9106C118.071 74.4739 118.256 74.4805 117.882 74.4805C117.664 74.4805 117.502 74.669 117.608 74.965C119.221 79.3557 119.142 79.4752 119.383 79.6475C119.579 79.7878 119.935 79.7685 120.073 79.3999L121.521 75.3906L122.959 79.3999C123.122 79.8333 123.655 79.8468 123.823 79.3999C125.427 74.8417 125.603 74.7998 125.393 74.5541C125.309 74.4563 125.082 74.4611 124.982 74.5331Z" fill="#F66435"/>
<path d="M126.372 77.1036C126.372 78.6519 127.239 79.7477 128.721 79.7477C130.235 79.7477 131.081 78.6461 131.081 77.1036C131.081 75.5792 130.239 74.4595 128.721 74.4595C127.231 74.4595 126.372 75.5696 126.372 77.1036ZM128.721 75.0073C129.666 75.0073 130.428 75.639 130.428 77.1036C130.428 78.3125 129.88 79.2104 128.721 79.2104C127.798 79.2104 127.025 78.5757 127.025 77.1036C127.025 75.6565 127.777 75.0073 128.721 75.0073Z" fill="#F66435"/>
<path d="M133.104 79.3999V76.6715C133.104 75.6855 133.708 75.1341 134.673 75.0387C134.774 75.0216 134.952 75.047 135.063 74.9281C135.179 74.804 135.178 74.4204 134.831 74.4488C134.013 74.4616 133.409 74.7963 133.083 75.5362V74.8175C133.083 74.3978 132.661 74.4391 132.535 74.5646C132.387 74.7124 132.478 74.6478 132.451 79.3999C132.451 79.5053 132.479 79.5861 132.535 79.6422C132.662 79.7695 133.104 79.8104 133.104 79.3999Z" fill="#F66435"/>
<path d="M136.696 79.3999V77.2088H136.717C139.494 79.6542 139.413 79.5975 139.53 79.6686C139.863 79.8716 140.236 79.5517 139.898 79.2419L137.398 77.0217L139.677 74.9439C139.988 74.6015 139.563 74.3453 139.282 74.5436C139.116 74.6613 139.146 74.6552 136.717 76.8717H136.696C136.668 72.397 136.763 72.3945 136.612 72.2524C136.469 72.119 136.053 72.1088 136.053 72.5V79.3999C136.053 79.5053 136.081 79.5861 136.138 79.6422C136.269 79.774 136.696 79.8035 136.696 79.3999Z" fill="#F66435"/>
<path d="M26.0026 36.7612C26.586 37.186 27.2588 38.0049 28.0668 37.4924C28.2571 37.3724 28.684 36.9185 28.6438 36.6077C28.6174 36.4378 29.2036 37.2216 22.7144 28.8559C21.9575 27.8821 20.4651 27.9028 19.6609 28.8963C19.4685 29.1324 19.2768 29.371 19.0845 29.6072C18.3918 30.4601 18.4858 31.7108 19.3431 32.3348C21.4651 33.8825 23.8373 35.1948 26.0026 36.7612Z" fill="#F66435"/>
<path d="M31.4276 42.015C32.3336 41.775 32.883 40.7816 32.6524 39.8004C32.4218 38.8192 31.502 38.2181 30.5959 38.458C29.6874 38.6986 29.1405 39.6914 29.3711 40.6726C29.6017 41.6538 30.5221 42.2572 31.4276 42.015Z" fill="#F66435"/>
<path d="M125.906 48.5773C127.766 40.6422 124.151 31.358 117.113 26.0006C109.859 20.4796 99.4072 19.1935 91.6987 21.1681C89.7032 17.9529 85.6889 17.1727 81.9106 16.9352C76.6323 16.6056 72.5605 17.1432 69.1001 18.6295C64.7485 20.4987 61.5142 24.1193 60.6597 28.0783C60.5897 28.3998 61.0783 28.5096 61.1479 28.1837C61.9692 24.3805 65.0918 20.8952 69.2973 19.0885C72.6826 17.6339 76.6802 17.1076 81.8794 17.4342C85.3738 17.6539 89.277 18.3377 91.185 21.3102C89.7305 21.7467 88.2134 22.5011 87.4106 23.9342C86.297 25.9216 87.8214 29.087 90.0654 28.609C92.0333 28.186 93.7679 25.069 91.9565 21.6188C99.7696 19.6994 109.846 21.0976 116.81 26.3981C123.696 31.6403 127.236 40.7135 125.419 48.463C125.342 48.7843 125.832 48.8994 125.906 48.5773ZM89.9609 28.1198C88.1727 28.5098 86.9341 25.8085 87.8472 24.1784C88.5898 22.8517 90.0527 22.1569 91.4477 21.7545C93.1738 24.9517 91.6216 27.7636 89.9609 28.1198Z" fill="#F66435"/>
</svg>
